<?xml version="1.0" encoding="UTF-8"?>
<svg enable-background="new 0 0 406.093 304.301" viewBox="0 0 406.093 304.301" xmlns="http://www.w3.org/2000/svg">
 <path d="m268.72,0c2.867,2.548 7.341,9.817 11.101,11.5 4.941,2.212 14.183,1.125 20.1,3.2 7.246,2.542 14.06,6.968 21.4,8 23.386,3.287 42.689-25.217 65.399-20.5 10.07,2.092 20.878,20.828 19.2,30.8-1.148,6.827-6.789,13.855-13.05,16.8-15.947,7.501-33.016,20.146-37.75,37.8-4.022,14.999-5.676,32.165-3.5,46.2 1.814,11.709-4.399,21.912-13.101,28.4-3.455,2.578-8.514,5.59-12.8,7.199-7.437,2.795-10.104-.719-16.6-.799-16.503-.203-49.317,25.873-65.2,36.299-25.111,16.486-50.456,33.273-76.15,49.25-17.393,10.814-34.617,21.914-52.339,32.188-8.216,4.764-25.2,18.078-33.411,17.963-15.664-.221-34.701-21.23-43.333-32.744-15.785-21.053-33.304-51.764-37.866-78.157-3.931-22.736 6.537-32.869 25.7-42.449 17.72-8.859 33.692-20.851 50.7-30.95 20.42-12.126 40.276-24.372 60.8-36.5 18.41-10.878 37.234-21.056 55.825-31.619 6.39-3.631 24.067-9.598 28.875-15.381 1.718-2.066-.812-3.867.2-5.4 2.732-4.14 5.081-7.292 8.9-10.7 5.44-4.854 11.356-8.638 17.449-12.7 5.21-3.473 13.475-7.36 19.451-7.7"/>
 <path d="m266.82,4.8c.248-.86.912-1.256.1-2.4 4.063,1.651 6.93,4.743 9.6,8.2-1.479-.824-3.517-1.89-4.8-2.9-.669,1.163.822,1.478.9,2.4l-2.4-2.4c-.199,1.202.002,1.003.5,2.4-.258-.256-.897.348-1,.5-.739-1.347-1.017-1.912-1.899-2.9 .075.7 1.059,2.319 1,2.9l-1.5.5c-.743-.519-1.171-2.186-1.9-2.9 0-.021-.543.363-.5.4 .244,1.44.658,1.618 1,2.5-.565-.685-1.719-1.662-2.4-2.9-.317.135-.584.335-.8.6 .383,1.021 1.131,2.099 1.3,3.2-.632-.641-3.445-1.979-3.899-2.4 .134,4.422 1.134,2.729-1.9,1.5-1.879,3.027-.745,1.143-3.6,2.5-2.045,1.972-1.052.782-3.101,3.2-2.05-.425-.434-1.747-2.899-.5 .083,2.894 1.175.346-2.8,1.8 .01-.006 1.089,1.606 1.3,1.1-1.745-.079-2.374.365-3.8,0l1,2.4c-.377-.062-2.763-1.432-2.801-1.4-.513,1.729.462.742.801,2.4-3.595.839-1.941.829-3.301,2.9-.502.442-1.788.399-2.899,2.3-2.276-1.22-4.608-1.869-6.7-2.8 1.748-.897 1.044-.711 2.9,0l.5-.5c.259-.61-1.34-1.201-.5-1.9 1.203-.299 1.425.929 2.399,1 .127-1.64-.233-1.276-.5-2.4 .091-.043.124-.11.101-.2l.199-.2c.091.024.157-.01.2-.1 1.529.176 1.34.866 2.8.4l-1.399-1.9c1.015.07 1.746.918 2.399,1 .123-.955-.134-1.873 0-2.9 1.384.062 1.046.435 2.4,0-.027.079-.556-1.041-.5-1.4 .983.062 1.168,1.046 1.8,1.5 1.136-1.785.151-.909-.3-2.5 1.805-.408 1.045.637 2.9,1 .871-.765-.56-2.272 0-3.4l2.3,1.9c.555-1.816.412-.426-.9-2.4 .232-.372.532-.672.9-.9 1.284-.407 1.313,2.061 2.899.9l-.899-2.4c1.653-.094 2.638.459 4.3.5 .352-1.189-1.243-1.039-.5-2.4 .675.088 1.794,1.658 2.4,1.9 1.005-1.525-.828-1.598-.5-2.9 1.342.82 2.703,1.228 3.899,1.5 .676-2.473.95-2.898 1.9-3.8 .566.197 2.82,1.086 3.8,1.4-.141-1.116-.391-1.384-.9-2.9 2.241-.815 1.959.72 3.3,1.9" fill="#409fff"/>
 <path d="m385.92,4.3c-.919,2.891-.32,2.815 1,.5 2.524,2.617 3.468,1.86 4.2,1.9 1.514.991 3.863,3.412 4.8,4.8-1.059.68-1.729,1.69-3.2,2.3 .025.033.463,2.183.9,1.6-.276-.104 1.677-.523 1.899-.5 1.535,2.195-.031,3.212 1.9,0 .625,1.769 2.202,3.332 2.9,4.8-.713.872-.787.32-1,2-.019.005.502.439.5.4 .609-.29.678-1.195.899-1.4 13.175,12.87-8.032,28.066-18.6,33.1 .023-1.842-.354-1.569-.7-2.8-.555,3.695-1.89,4.691-5.1,7.1-1.868-2.465-2.694-1.841-1.5,1-1.064.424-3.275,2.206-4.301,2.9-.493-.021-2.388.621-3.399.9-3.339,5.437-8.579,10.034-10.9,15.8-1.786,1.292-.839,5.008-3.5,9.2-.28.139-1.041.279-1.899.9 .153-.036 1.812.477 1.899.5-.027.006.189.435.101.4-3.505.164.233,7.87-3.4,10.7 1.234,1.92.958,2.381 1.4,5.7-1.132-.129-.532-.672-1.9,0 .4,1.036 1.797.943 1.9,1-.773,5.074-1.401,3.428-.9,6.7-1.796.007-1.548-.135 0,1-.635,1.92-1.299,3.47-1,5.7-.178-2.713-.716-4.989-3.3-6.7 2.652-1.336 1.73-.039-.101-1.7-.262-.367.979-.911 1-1.2-4.175-1.379-5.623-4.205-3.399-7.7-4.038-.982-2.354-1.55-5.2-3.8-.005.145 1.318-.729 1.4-1-5.067-2.831-8.578-11.38-10.601-17.8 1.782,3.148 3.152,5.081 6.3,5.8-1.457-3.625-2.123-5.948-4.399-6-1.478-.925 1.196-2.142-1.9-.7-1.576-.913.51-1.297-1.399-.5-.444-4.014.975-7.297-1.9-8.2-.237,2.201.317.211-.9,3.4-2.186-4.279-2.706-7.815-4-12.5-.598.877-.475.941-.8,2.2l.4.2c-1.768-.987-2.754-2.846-3.8-4.3 2.871-2.075 1.769-.022.899-3.4-.158.179-.095,1.541 0,1.5-3.931-1.495-2.807-3.525-6.399-7.2 1.105-2.335.299-.073-.7-1.9-.307-2.738-3.52-3.134-4.4-8.7-.686.995.04,1.306 0,2.5l-2.399-2.9c4.282-2.553 1.093-1.354.399-2.3-3.323-4.535-12.749-14.403-18.2-20.3 .354,2.155.023-2.377 0-2.9 1.467-.217-.579,1.435 2-.4 .659.163 1.334-.057 2.4,0 .887,2.238 1.119,1.204 2.9,2.8-.126,1.033-.436.275 0,2 .6-.091 1.549-1.613 1.899-2 .364.538-.933,1.559.4,2.4 .745-2.3.662-.561 1-3.3 .006.008 1.723.008 1.5.4 .01,2.682-.454-.167 1.399.5 1.422.964 4.687,2.072 7.7,2.9-1.041,1.571-.232.496 0,2.4 2.728-1.878 2.316-.446 5.3,0 1.699,1.873 12.859,5.005 17.7,7.7-.681.129-1.839.241-2.899.5 1.236.374 1.504.606 3.399.4 1.434,1.948.144,1.01 1.9.5 1.565,2.314 1.779,2.359 3.899,2.9 .886,1.569 6.187,5.677 9.101,8.7 2.183-3.042.734-1.541-.5-2.5 .146-4.618-6.071-8.978-10.101-10.5-.42-2.067-2.762-2.91-6.699-3.9 .158.076 3.814-.667 3.199-.5 .208,2.874 1.272.988 1.101-.4 11.762-3.139 35.936-23.131 46.6-17.8-.399-1.287-.46-1.472-1-2.4 3.7,1.216 5.457.629 8.202-.5" fill="#ffbf00"/>
 <path d="m274.02,14.4c.956-.48 1.397-.911 2.5-1 3.66,1.744 8.206,5.991 11,10.2-.202-.182-.818.037-.8.3-.09-.023-.156.01-.2.1-.853-1.164-1.438-2.602-2.399-3.8-.079,1.324.31,2.119.6,3.3-.567-.699-1.3-2.123-1.7-2.9-.001-.014-.857.457-.8.5 .266,1.053.984,1.733 1,2.9-1.415-1.9-2.781-2.088-3.899-2.9 .729.965 1.47,1.761 2,2.9-.252-.146-1.035.275-1,.5-.728-.517-1.75-2.176-2.4-2.9l-1,1c.687.679 1.146,1.584 1.5,2.4-.741-.81-1.851-2.03-2.5-2.9 .145.72.75,2.425.6,3.4-.8-.984-2.012-1.921-2.899-3.4-.093,1.478-.355,1.819.399,3.8-.828-.541-2.675-1.444-3.3-1.9l1,2.9c-.404-.2-1.396.029-1.5.5-.205-.184-.662-1.977-1-2.4l-1.399,1.4c-.273,2.142 1.988-1.135.5,2-2.746-2.405-1.189-1.072-1.4.9-3.573-.02-2.259-1.17-2,1.4l-2.4-1.9c-.092,1.584-.072,2.046 0,3.4-1.329-.798-.415-1.639-2.399-1-.28,1.064 1.197,1.457.5,2.9-3.986.493-1.737-1.675-3.3,2.9l-2-1.9c-.646,1.246.575,1.689 0,2.9-3.009.365-1.897-.756-2.801,2.3-1.439.025-.692-1.268-2.5-.4 .186.739.826,1.147 1,1.9-1.128,1.01-1.02-1.269-1.399,1.9-4.539-.318-8.385-6.615-11.5-12.5 1.383-1.166.274-.053.899-1.9-.192.048 1.642.79 1.7.8-.011-.188-.7-2.301-.7-2.3 .042.001.384-.353.4-.4 .989.271.766.778 1.5,1 .667-1.539-.207-1.004 0-2 1.118-.02 2.025.064 2.9,0-.23-1.066-.686-.815-.5-1.9 .772-.084.725.496 1.899,0-.039.096-.604-1.112-.5-1.5 2.057.577 2.047.107 3.4,0l-1.4-.9c2.596-.112 2.169-.03 2.3-1.4 .878.261 1.544,1.019 2.301,1.5 .256-.945.229-2.119.199-3 .889.287.732,1.158 1.9,1 .037-.578-.494-1.622-.5-1.4 .805.021 1.322.134 2.5.4 .357-.813-.285-1.118-.1-1.9 .942.073 1.57.688 2.5.9 .408-.653.191-1.655.399-2.3l1.9,1.9c.22-1.672.114-.277-.5-2.4 .354.039.817-.153.899-.5l2,2.4c.219-.288.741-3.299 0-2.9l2.4,1.9c.28-1.198-.354-.809-.5-1.9 .354.09.6-.096.9-.4 2.671,1.796.688.997 2-.6 .639.527.651,1.5 1.399,2 .102-.144.235-.244.4-.3 .372-.276-.057-1.315.1-1.7 1.102.312 1.481,1.431 2.4,2-.055-.506-.456-1.911-.5-2.4 1.511-.234.943.72 1.901,1.4" fill="#409fff"/>
 <path d="m286.02,28.8c.138-.014-1.589-1.581-.399-1.8 .987.45 2.049,1.505 2.8,2.3 .058-1.008-.329-1.271-.4-2.4 3.582,1.657 6.098,2.939 7.101,7.2l-2.3-2.4c.218,1.481.226,3.407.399,4.8-.969-.562-.497-1.939-1.899-2.4 .155,1.153.498,2.706.5,3.9-1.649-1.448-1.561-1.36-2.9-2 .324,1.178 1.134,2.028 1.4,3.4-3.196-1.652-2.326-2.435-1.9,1.9l-1.9-2.9c.053.82-.245,2.388 0,3.8-1.024-.652-1.61-2-2.899-2.3 .254.829-.112,4.277 0,4.8l-2.3-1.9c-.501,1.619.543,1.644.399,3.3-1.867-.07-2.388-1.06-4.3-.5 .095.171 1.177,2.023 1,2.2-.821-.867-.48-1.201-1.6-1.6 .039.362.621,2.726.6,2.6-1.596.116-.896-.777-1.5,1.6-.493-.933-1.128-1.787-1.9-2.4 .734,3.829.514,3.414-2.3,2.4-.236,1.337-.837,2.521-1,3.9-.701-.42-1.122-1.95-1.899-2.5-.406,1.394.252,2.442 0,3.9-1.192-.22-.082-2.261-1.9-1.9-.156.956.576,2.255.2,3.2-.37.22-.771.287-1.2.2-.849-.921-.652-1.722-1.5-2.5-.346,1.179-.802,3.43-.9,4.4-2.469-2.726-.648-1.764-1.399.9l-2.5-2.4c-.373,1.712-.002,1.841.5,3.4l-2.4-1.9c.1,1.41.152,1.872.5,2.9-3.636-3.094-6.642-9.65-8.399-14.3 1.925.954 2.024.161 3.1.3l-1.9-1.9c1.006-1.065 1.823-.199 1.9-1.9 1.117-.239-.302.349 1.9-.5-.005-.161-.693-.684-.9-.5 1.199-.536.503.063 1.9.5 .518-1.179.024-1.731.5-2.9 .47.422.717,1.508 1.399,2 .429-1.312-.138-2.153 0-3.4l1.9,1.9c.856-1.586-.433-1.403-.4-2.9 1.307.033.818.902 1.9,1.5 .224-.139.424-.306.6-.5 .054-4.432-.794-1.369 2.7-2.9-.055-.139-1.431-1.216-.9-1.4 2.429.531 1.257,1.207 1.4-1 1.523-.683.806.199 2.3.6 .582-1.129.079-1.58.101-3 1.356-.233 1.477,1.211 2.5,1.5 1.459-.547-.612-2.244-.601-2.5l1.5-.4c2.395,2.78 1.498,2.031 1.4-1 3.508.388 1.914,2.431 2.399-.9 1.029,1.052 2.619,2.599 3.4,3.8-.358-.91-.473-2.758-1.4-4.4 1.282.892 3.44,1.944 4.2,2.5-.511-.733-1.418-2.246-1.899-2.9 1.178,1.128 2.86,1.934 3.899,3.3-.248-.762-.545-2.528-1-3.8 .987.504 3.849,1.571 4.297,1.9" fill="#409fff"/>
 <path d="m243.82,44.6c19.604,26.962 36.456,57.452 52,86.799 2.063,3.896 16.231,25.525 14.1,28.5-.972,1.355-14.343-7.482-3.7,2.301-6.771,7.389-10.464-5.762-16.8-6.201 3.129,3.654 5.723,7.709 9.6,10.602-3.965,5.396-9.061,3.232-12-1.9 9.698,15.297-8.26,2.486-13.899-.5 .384,4.582 6.101,8.725 10.5,11-5.504,7.137-9.113.813-14.4-.9 1.28,2.289 2.786,4.795 5.8,6.199-1.019.924-3.036,2.41-4.3,2.9-4.816-2.035-8.622-6.797-13-11 .666,4.883 5.609,10.58 10.601,12.4-5.701,6.832-9.201.404-14.9-.5 2.221,1.596 3.641,4.588 5.8,6.301-7.604,5.49-11.016-4.205-16.3-6.701 1.085,4.941 5.132,8.994 10,10.5-4.464,4.232-8.99,2.838-11.5-2.4-.347.215-.68.449-1,.701 1.741,2.035 2.227,4.049 4.8,6-7.014,6.471-9.756-1.861-15.3-4.301 1.695,3.664 4.293,6.785 7.6,9.1-4.122,3.893-8.649.637-12.899-.898 1.525,1.32 3.421,4.139 6.2,5.299-6.076,6.93-10.316.594-15.7-3-1.961-1.309 3.2,7.121 8,8.201-4.654,6.805-9.758.574-14.8.5 2.403,1.943 3.779,3.943 6.699,5.299-8.012,3.281-10.693-2.074-17.8-5.799l-.899,1.5c4.052,2.723 7.229,6.633 12,8.1-4.539,5.957-25.509-3.896-9.601,6.699-7.489,4.41-7.958-7.209-13.5-8.6-5.416-1.359 6.173,10.496 8.7,11.5-5.438,5.504-10.769,1.893-14.9.5 2.382,2.635 2.472,3.736 6.2,4.801-6.89,8.537-10.051-3.732-15.7-3.801-4.917-.059 6.89,7.977 8.5,8.6-5.294,5.668-9.815,2.246-14.399,1.4 1.717.916 3.234,3.342 4.8,4.4-6.437,7.375-12.427-1.41-18.2-4.4 1.207,4.689 5.899,7.859 10.5,9.6-1.662,1.676-4.885,3.568-7.1,4.4-2.381-.402-7.958-1.85-10.601-2.4 2.583,1.545 3.611,3.385 6.7,4.301-7.323,6.559-11.737-3.742-17.8-3.4 2.587,3.764 6.389,6.482 10.6,8.199-1.673,1.488-4.105,3.543-6.3,4.102-1.172.299-7.414-1.119-6.1-1.801-2.68,1.389-4.063.807.899,4.9-6.301,6.854-11.413-.455-16.8-3.9l-1,1c2.416,3.406 6.464,6.24 9.101,8.6-5.341,4.375-18.044-2.27-9.101,4.4-8.071,8.992-13.044-3.371-19.2-2.9 2.19,3.842 5.692,6.686 9.6,8.701-4.546,5.283-10.265,3.863-14.9,2.799 1.438.861 3.03,2.365 4.4,3.4-7.61,3.814-12.875-2.076-18.3-5.301 1.157,5.215 6.389,7.908 11.6,9.102-10.102,5.828-27.374-10.311-34.1-17-13.612-13.539-22.762-30.938-31.3-47.9-8.246-16.383-28.676-52.424-9.2-68.25 15.526-12.617 36.958-21.596 54.3-31.6 29.573-17.062 57.912-36.482 87.6-53.491 18.387-10.535 36.803-20.099 54.9-30.959 5.942-3.566 16.461-10.796 23.2-11.6 7.799-.933 5.567,2.437 11.999,7.797" fill="#bfffff"/>
 <path d="m298.52,38.4c2.481,2.116 6.123,6.388 8.2,10.1-.768,1.14-.221.029-.5,2.4-.18.046-1.017-.984-1.5-1-.355,1.334.787,1.853.601,2.9l-2-2.9c.153.72.169,2.871.5,4.3-.407.316-.874.482-1.4.5-1.971-1.984-.595-.467-2.5-.9 .568.632 1.178.196 1,1.4-.113.078-.85-1.398-1.1-1.5-.4,1.344-.64,2.637-1.301,3.9-1.099-1.346-2.024-1.806-2.8-2.4 1.037,2.252.254,3.505.4,4.8l-2.4-2.4c.22,1.413.284,1.671.9,3.2-.164.364-.464.564-.9.6-.848-.759-1.041-1.852-1.899-2.5-.342.135-.642.335-.9.6 .888,1.303.917,2.207 1.4,3.4-2.252-1.881-3.655-1.456-4.801-1.9 2.374,2.844.961,1.301 1.4,4.3-1.569-2.123-2.519-2.039-3.8-2.9 1.347,1.666 1.54,2.354 2.399,4.4-2.088-2.578-2.5-1.344-3.899-2 1.535,1.663 1.033,1.732 1.5,3.4-1.79-2.523-1.613-1.121-3.4-2 1.193,1.451 1.276,1.847 1.9,3.4-1.285-.375-1.419-1.055-2.3-1.8-.093.587.212,2.969 0,3.8-.771-1.034-1.01-2.012-2-2.9 .149,1.038.12,3.025.5,4.8-.782-.687-2.216-1.96-2.801-2.8 .046,1.007.196,2.355.4,3.7l-2.4-2.4-1,1c1.134,1.736.723,1.817 1,3.4l-2.899-2.5c.273,1.058.168,3.367.5,4.4-.561-.332-1.348-1.948-1.9-2.5 .068.566.179,2.84 0,3.4-4.34-4.091-9.296-9.155-10.6-15.3 3.208,2.043.122.719 1.399-.5 1.346.071 1.608.676 2.9.5-.071-.908-.725-1.055-.9-1.9 1.638.691 1.266.883 2.801.9-.203-1.025-1.057-.755-.9-1.9 1.546.388 1.356.971 2.9.4l-1-1.9c1.165.292.845.892 2.3.8 .123-.888-.47-1.252-.4-2.2 1.286.063 1.808.251 2.9,0 .031-.295-.588-.828-.4-1.5 .519.075 1.6.606 2.3.7 .174-.19-.837-1.791-.899-2.1 4.568,1.313 2.279.729 4.3-1.9-.22-.037.331,1.212.5,1 .673-1.542.401-1.25.4-1.7 2.142-.312 1.234.836 2-2.2 .052-.011 2.028,1.315 2.5,1.4-.335-1.576-.104-1.063-1.101-2.3 .07-.005.243-.216.2-.3 .332.059.348-.5.3-.7 1.218.909 1.799,1.18 2.8,1.6-.117-.409-1.314-2.102-.899-2.5 .078.012 1.679.752 1.399.9 1.015-.922.02-1.118 0-1.9 1.27-.251 1.966.488 3.2.7 .651-.589-.674-1.968-.7-2.6 1.892.139 1.289,1.108 2.9.4-.179-.884-.956-1.15-1.1-1.6 .099-.089.132-.165.1-.3 .058-.035.398-.34.4-.4 .861-.272 1.189,1.147 2,.9l.5-.5c.331-.066-1.117-1.296-1.101-1.4 .176-.195.376-.361.601-.5 .995.316 1.929,1.342 2.8,1.9-.243-.975-.885-1.901-1.4-3.3 2.442,1.268 1.757.828 3.4.9l-2-1.9c.624-.171 1.73-.321 2,1-.129-.876 1.065-1.335 0-2.4-1.14-1.14.806.755 1.4.9" fill="#409fff"/>
 <path d="m312.92,59c3.028,3.787 6.401,7.631 6.8,12.6-.743-.997-1.324-2.068-2-2.9-.178,1.72-.923,3.256-.5,5.7-2.506-3.731.236-1.576-1.399,0-.573.114-.785-1.086-1.7-.8 .045,1.04.555,1.756.8,2.8-.934-.56-1.714-1.096-2.6-1.4-.081.581.733,1.84.6,2.3l-1.4-1.5c-.602,1.499-.077,1.418.5,2.9l-1,1c.283-.103-1.51-1.394-1.899-1.4 .011,1.042.893,2.086.8,3.2-.396.278-.829.479-1.3.6 .193.006-1.674-1.795-1.9-1.9 .14,1.349.196,2.479 0,3.8-.576-1.031-.871-2.344-1.399-3.4 .094.834-.101,3.054 0,4.4-.483-1.665-1.31-2.356-2-3.8 .479,2.473-.408,4.067-.5,5.2-.54-1.288-.737-2.161-1.4-3.3 .095,1.415-.252,3.188 0,4.8-.671-.884-.959-1.963-1.5-2.9 .043.523-.177,2.889 0,4.3-.817-.839-1.565-1.9-2.3-2.9 .168.932-.11,3.318 0,4.4-.632-1.191-1.257-2.295-1.9-3.4 .163.976-.228,3.466 0,4.8-2.931-4.589-2.719-1.292-2.5,1.4-.452-.229-1.41-1.944-1.899-2.4-.06,1.188.603,2.652.5,3.8-1.251-.493-2.413-1.479-3.4-1.9-.03.966 1.225,1.75 1,2.9-1.956-.006-.747-1.62-2-1.9-.789,1.532.183,1.835-.4,3.4-.717-1.097-.794-1.795-1.899-2.5-.103.2-.241,2.192 0,2-.438.388-1.449-.189-2.4,2.8-3.051-4.408-8.88-10.505-11.6-17.7 .264.119 1.691,2.095 2,2.4 .233-1.252-.402-2.641 0-3.9 .883.995.508,1.936 1.899,2.5-.177-1.19-.863-2.393-1-2.9l1-1 2.4,2c.364-1.504-.488-1.883-.5-3.4 1.384,1.147 2.263,1.617 3.8,1.9-.462-.889-1.503-1.552-1.899-2.4l1.5-1.5c1.043.825.753,1.379 1.899,2 .514-1.221-.753-1.55-.5-2.4-.433.133-.566-.034-.399-.5l2.3,1.9c.011-1.307-.438-2.672-.4-3.8 1.955,1.141 1.443,1.06 3.3,1.4-1.099-2.573-.563-.766-.399-3.4 .703.937 1.056,1.972 1.899,2.9-.24-1.251-.286-3.529-.5-4.3 1.57,1.889 2.248,1.364 3.4,2-1.628-2.243-.72-2.584-1-3.9 .798.656 1.701,1.812 2.4,2.4 .025-1.353-.437-2.582-.5-3.9 1.461.583 2.066,1.153 3.3,1.5 .107-1.114-1.113-1.509-.9-2.9l2.4,2c-.146-.743-.878-2.464-.9-3.4l1.4-.5c1.292,1.835 1.285,1.654 2.399,2.4-.247-1.298-.661-3.159-1-4.3 .055,0 1.872,1.749 2.4,1.9-.146-.517-.931-2.58-1-3.4 .272.185.771.053.8-.3 .091.024.157-.01.2-.1 .687.514 1.606,1.661 2.4,2.3-.134-.748-.949-2.558-.9-3.4 .788.456 3.5,1.028 4.3,1.5-.783-1.068-1.346-2.268-2-3.3 .654.563 1.842,1.402 2.9,2.4 .067-.375 1.453-1.149 0-1.4 .096.946.687-.576 0-2.5 .832.19 4.104,2.791 5.296,4.3" fill="#409fff"/>
 <path d="m330.22,92.1c-.772-.29-.583-1.415-1.5-1.9-.069,1.944-.131,2.125.601,3.9l-2.5-1.9c.1,1.322.422,2.732.5,3.8-.749-.774-.346-1.454-1.4-1.9-.183,1.119.439,2.245 0,3.4l-1.4-1.5c-.311,1.19.085,1.556 0,2.9l-1.5-1.9c-.585,1.38-.097,1.489 0,2.8-.542.389-2.187-.269-2.899,0 .094.73 1.04.969 1,2-2.233-.62-1.921.334-2.5.9 .296-.157-1.39-.895-1.4-.9-.248.729-.404,3.07-.399,3.5-.669-.525-.705-1.621-1.5-2.1-.617,1.144.525,2.04 0,3 .44-.223-1.889-1.372-2.101-1.4 .126,1.446.561,2.136.2,3.7-.026-.015-.874-2.026-1.4-2.4-.352,1.036.475,2.375 0,3.3h-1.5c-2.062-2.374-1.864-1.231-1.899,2l-1.4-2c-.545.635-.164,2.643-.5,2.9-.094-.011-1.693-1.694-2-1.9-.76,1.208.266,2.107-.399,3.4-.743-.222-.887-1.992-1.9-2.4-.105.862.287,2.405 0,3.4-.371-.928-1.045-2.313-1.4-3.3-.387.074-.753.208-1.1.4l.6,3.8c-.992-.689-.724-1.662-1.6-2.4-.538,1.078-.453,2.471-.9,3.4-.761-.095-.35-1.447-1.399-1.5-1.015.203.122,1.788 0,2.4-2.636-2.607-1.711-3.022-2.4,0-4.965-3.728-7.468-9.82-10.1-15.3 .803.855 1.651,2.003 2.399,2.9 .102-.144.235-.244.4-.3-.004-.053-.073-2.712-.5-2.2-.219.396-.304-.591-.3-.4 1.867-.223 1.638,1.568.899-1.9 .525.281 1.326,1.85 1.9,2.3-.053-.434-.524-2.664-.5-3.3 .453.483 1.938,1.697 2.9,2.9-.118-1.341-.601-1.923-1-3.4 .76.012 2.216,1.547 2.899,1.5 .155-.901-.69-2.486-.5-3.1 .217-.399.55-.666 1-.8 .264-.103 1.315,1.473 2.101,1.4 .424-.861-.608-2.194-.101-3.3 1.414.903 2.089,1.433 3.3,1.9l-1.399-2.9c1.104.898 2.155,1.389 3.3,2.9-.463-1.294-.31-2.038-1.4-3.8 .519.266 1.06-.686 1-1 .632.625 1.306,2.138 1.9,2.9 1.18-1.899.021-2.02.4-3.8 .268.119 1.479,1.864 1.899,1.5l.601-.6-1-2.9 2.399,2c.648-1.464-.119-1.451-.5-2.9l1.9,1.9c-.153-1.211-.25-2.554 0-3.8 1.146,1.535.998,1.815 2.399,2.8-.36-1.211-.78-2.394-1.399-3.8 1.152.301 2.069,1.362 3,1.8 .138-1.981-.311-1.624-.101-3.7 .281-.138 1.661,1.455 1.9,1.4 .16-1.576-.52-2.384 0-3.9 1.008.421 1.019,1.773 2.1,2.1 .284-.176.551-.376.801-.6-.315-1.015-1.295-1.584-1.5-2.9l2.399,2.4c-.227-.909-.452-2.459-.899-3.8 .597.605 1.157,1.678 1.899,2.4 .063-.124.534-2.702 0-2.4-.456.423 1.771.896 1.9.9-.324-1.433-.573-1.33-1.5-2.9 1.238,1.066 3.277,1.579 3.899,2-.67-1.16-1.705-3.402-1.899-3.9 4.233,5.291 8.008,11.774 9.099,18.2" fill="#409fff"/>
 <path d="m332.52,96.9c6.237,2.354 9.279,13.769 7.301,18.3-2.593-.551-2.02-1.444-1.9,2.4l-1.5-1.4c-.492.944-.188,1.952-.4,3-.542-.345-.854-1.266-1.399-1.6-.043.09-.11.124-.2.1-.195.903-.024,1.75-.3,2.8-1.239.133-.289-1.308-2-.5-1.818,1.952-2.432,1.077-2.4,4.4-3.016.261-2.279-2.195-1.899,1.9-2.841-.053-.559-2.1-1.9.9-.527.106-.546.206-1,.5 .117.01-1.148-1.776-1.4-1.9-.269,1.357.199,1.582 0,3.4l-2.399-2.5c.09,1.062.363,2.526.5,3.9-1.205.184-2.669,1.391-3.4,2.398-.736-1.035-1.084-1.979-1.899-2.898 .322,2.197-.864,3.447-1,4.299-.453-1.25-.571-1.783-1.4-2.9l-1,1c1.427,4.535-.229,3.49-2.4,0 .178,1.133.068,2.893.5,4.301-.855-.674-2.59-2.115-2.899-2.4-.089.813.608,2.346.5,3.4-.878-.869-1.385-2.055-2.4-2.9-.035.656.528,2.486.4,3.1-.401.234-.834.301-1.3.201-.583-.873-.782-1.895-1.5-2.801-.022.703.241,2.563 0,3.4-4.877-4.217-7.168-12.211-10.101-17.8 .835.743 2.453,1.659 3.5,2.8 .187-2.246 1.167-.721.4-3.8 .263.668.563.668.899,0-.573-.016 1.542,2.085 1.4,1.9 .238-1.141-.562-1.865-.4-2.9 1.059,1.357 1.704,2.291 2.9,3.4-.503-1.115-1.059-2.985-1.5-4.3 .835,1.331 2.125,2.574 2.9,3.8-.349-1.236-.631-2.91-1-4.3 .795.767 1.141,1.542 1.899,2.4 .074-1.303-.177-1.533-.399-3.3l1.399-.5c2.869,1.762 2.252,2.168 1.5-1.4 .284.121 1.912,2.293 2.3,1.9 .112-.993-.646-1.84-.399-2.9 .952.725 1.096,1.378 2,1.8 .426-1.189-.769-1.589-.601-2.8 3.114.646 1.682,1.374 2.9-1.4 3.128.81 1.4,1.938 2.4-2l2.399,2c1.054-.929-.807-2.393-1-3.4l2.5,2c-.462-1.158-.043-1-1.5-2.9 .729.146 1.612-.169 1.5-1 .78.707.998,1.683 1.9,2.4 .779-.994-.726-2.562-.4-3-.381-.206.021-.379 0,.1 1.42.2.74,1.415 2.3,1-.772-2.135-.684-1.671-.5-3.4 .746.782 1.423,1.986 2.4,2.9-.187-1.668-.589-2.172-1.5-3.8l2.5,1.9c.206-.167.373-.367.5-.6-.047-1.252-1.062-1.55-1-2.8l2.8,2.4c-.107-1.299-.478-1.913-.899-3.4 .776,1.689 1.248,1.628 2.399,2.5-1.974-3.671-.998-5.384 2.4-8.2-.689,1.179-.228,2.026-.102,2.8" fill="#409fff"/>
 <path d="m346.02,120.5c.691,4.804 2.538,8.89 2.5,12.499-.746.234-1.769.203-2.5.4 .456.982 1.106,1.184 1,2.5 .113-.213-1.099-1.029-1.399-1 .145,2.049-.021,3.113-1,4.801-.594-1.283.007-1.529-1.5-2.4-.348.176-.647.408-.9.699 .759,1.137.822,1.432.9,2.701 .142-.045-.684-1.633-1.9-.5-.325,1.574.221,2.002-.899,4.299-1.168-1.146-.927-1.057-2-1.5 .022-.029.581,2.617.6,2.9l-2.5-2.299c-.042,1.387.4,2.879.5,4.199l-2.4-1.9c.381,2.018-.208,3.078-.399,4.4-.787-1.512-1.582-2.258-2.5-3.4 .415,1.521.285,3.445.5,4.801-.854-1.449-2.256-1.906-2.8-2.4 .9,2.869.014,3.143 0,5.301-.716-1.641-1.466-2.203-2.5-3.4 .729,4.525-.267,5.348-3.301,2 .229,1.092.099,3.141.4,4.199-1.14-1.215-3.196-1.826-3.8-2.299 .488,1.084 1.082,2.189 1.5,3.299-1.005-.848-3.861-2.082-4.8-2.9l1.899,3.9-2.399.9c-.532-1.766-.941-2.293-2-3.801 .174,1.436.225,3.08.5,4.5-.25.227-.55.328-.9.301-3.496-5.672-5.544-11.75-8.6-17.301 3.029-.348-.148,1.436 1.399-.398 .646-.955.918-.607 1.4-3.4l2.899,2.799c1.225-1.141-.509-1.631-.5-2.799l1.9,2.799c.13-1.498-.237-2.182-.4-3.799 1.31-.119 1.419.936 2.9,1 .221-.355.241-2.184-.6-2 2.495-.402 1.31.434 3.399,1 1.33-.91-.369-2.244 0-2.9 1.339,1.188 1.624,1.254 3.4,1.5-.533-.988-1.488-1.512-2-2.4l1-1c1.551,1.146 2.334,1.051 3.399,1.5-1.359-2.471-.182-1.088-.5-3.4 1.696,1.617 1.871.949 3.4,1.5-2.298-3.4-.328-1.588 0-3.398 2.521,4.377 2.142.674 1.4-2 1.585.563.838,1.114 2,2 1.253-2.098-.358-1.023-.101-2.9 1.017-.149 2.186,1.171 2.7,1-.129-1.445-.481-1.986.2-3.4 .962,1.567 1.181,1.771 2.399,2.9-.53-1.435-.729-2.849-1.5-4.4 .222.182 1.047-.065 1-.4 .626.999 1.233,1.925 1.9,2.9-.216-1.031-.292-2.197-.9-3.9l1.4-.9c.289.137 1.719,2.036 2,2.3 .122-1.025.113-2.846 0-3.8 .864,2.347-.15,1.107 1.9,1.5l-1-2.5c.662.26 1.014,2.126 2.1,1.4 .126-.856-.202-1.708-.2-2.3 1.099-1.866 1.701.797 1-2.4 1.59,1.156 2.668,2.853 3.304,4.797" fill="#409fff"/>
 <path d="m349.82,141.999c.13.232 1.357-2.697 1,.602-.783.412-1.786-.838-2.5-.9 .398,1.451.471,2.871.6,4.199-1.019-.105-1.824-.842-2.9-.9 .476,1.328 1.16,3.396 1.5,4.301-2.821-.725-3.161-2.164-.5,1.4-.222-.025-3.245.289-3.899.5 3.236,9.494-5.469-.074-2.3,7.199l-2.5-2.4c.14,1.506-.325,3.166-.4,4.301-.886-1.531-.812-1.484-1.9-2.301-.198,4.75 1.135,3.068-2.899,2.301-.736,1.199.275,2.18-.5,3.4-1.246-.242-.788-1.379-1.9-1.9-.436,1.195.164,2.217-.5,3.301-.178.078-.733-1.75-1.5-1.9-.815,1.645-.231,2.232-1.399,3.4-.497-.693-.195-1.746-.7-2.301-.222-.107-.455-.141-.7-.1-.575,1.014.026,2.521-.5,3.4l-1.9-2c-.298,1.127.093,2.162-.3,3.299-.393.113-.792.146-1.2.1-.117-.102-.273-2.535-.399-2.898-.637,1.555-1.41,2.758-1.9,3.799-.701-.158-.605-1.848-1.5-2.299-1.703,1.492-.328,1.867-2.899,2.299-.065-.332.673-2.01.5-2.9-.485.496-1.369,1.881-1.9,2 .161-2.035.125-3.346.4-5.299 1.168.314 1.394,1.047 2.399,1.5 .81-.43.105-2.104.5-2.4 1.769.982 1.201,1.121 2.9,1.4-.359-1-.874-1.74-1-2.4 1.363.539.869,1.697 2.5,1-.119.188-.691-1.613-.5-2 3.062,1.168 1.915,1.871 2.399-.9 .911.484 1.039,1.555 2,2 .342-.135.642-.334.9-.6-.277-.908-1.152-1.102-1.5-1.9 1.484-.285 2.584.861 3.7.701 .783-.586-1.091-1.842.2-2.5 1.038-.059 1.073,1.127 2,1.398 .84-1.508.087-1.646.8-3.5 .865.252.287,1.662 1.5,1.5 .431-1.314-.222-2.17.399-3.398l2,1.898c1.257-1.42-.322-1.666.9-3.799l1.5,1.5c.178-1.684-.052-1.67-.5-2.9 1.355-.051 1.443.797 2.9.4-.076-.543-1.021-1.064-1-1.4 1.918-.201.929.41 1.5-1.5 2.266-1.566 4.274-3.342 4.8-6.199 .478-.525 1.855-.158 2.899-2.4 .228,1.173.976,2.329 1.299,2.796" fill="#409fff"/>
</svg>
