<?xml version="1.0" encoding="UTF-8"?>
<svg width="581.97" height="676.67" version="1.1" viewBox="0 0 581.96829 676.66612" xmlns="http://www.w3.org/2000/svg" xmlns:xlink="http://www.w3.org/1999/xlink">
 <defs>
  <pattern id="g" patternTransform="matrix(10.54 0 0 9.9989 -42.642 8.0437)" xlink:href="#a"/>
  <pattern id="f" patternTransform="matrix(10.54 0 0 9.9989 -44.642 .043734)" xlink:href="#a"/>
  <pattern id="e" patternTransform="matrix(10.54 0 0 9.9989 -44.642 .043734)" xlink:href="#a"/>
  <pattern id="a" width="10" height="10" patternTransform="translate(0) scale(10)" patternUnits="userSpaceOnUse">
   <circle cx="2.567" cy=".81" r=".15"/>
   <circle cx="3.048" cy="2.33" r=".15"/>
   <circle cx="4.418" cy="2.415" r=".15"/>
   <circle cx="1.844" cy="3.029" r=".15"/>
   <circle cx="6.08" cy="1.363" r=".15"/>
   <circle cx="5.819" cy="4.413" r=".15"/>
   <circle cx="4.305" cy="4.048" r=".15"/>
   <circle cx="5.541" cy="3.045" r=".15"/>
   <circle cx="4.785" cy="5.527" r=".15"/>
   <circle cx="2.667" cy="5.184" r=".15"/>
   <circle cx="7.965" cy="1.448" r=".15"/>
   <circle cx="7.047" cy="5.049" r=".15"/>
   <circle cx="4.34" cy=".895" r=".15"/>
   <circle cx="7.125" cy=".34" r=".15"/>
   <circle cx="9.553" cy="1.049" r=".15"/>
   <circle cx="7.006" cy="2.689" r=".15"/>
   <circle cx="8.909" cy="2.689" r=".15"/>
   <circle cx="9.315" cy="4.407" r=".15"/>
   <circle cx="7.82" cy="3.87" r=".15"/>
   <circle cx="8.27" cy="5.948" r=".15"/>
   <circle cx="7.973" cy="7.428" r=".15"/>
   <circle cx="9.342" cy="8.072" r=".15"/>
   <circle cx="8.206" cy="9.315" r=".15"/>
   <circle cx="9.682" cy="9.475" r=".15"/>
   <circle cx="9.688" cy="6.186" r=".15"/>
   <circle cx="3.379" cy="6.296" r=".15"/>
   <circle cx="2.871" cy="8.204" r=".15"/>
   <circle cx="4.59" cy="8.719" r=".15"/>
   <circle cx="3.181" cy="9.671" r=".15"/>
   <circle cx="5.734" cy="7.315" r=".15"/>
   <circle cx="6.707" cy="6.513" r=".15"/>
   <circle cx="5.73" cy="9.67" r=".15"/>
   <circle cx="6.535" cy="8.373" r=".15"/>
   <circle cx="4.37" cy="7.154" r=".15"/>
   <circle cx=".622" cy="7.25" r=".15"/>
   <circle cx=".831" cy="5.679" r=".15"/>
   <circle cx="1.257" cy="8.519" r=".15"/>
   <circle cx="1.989" cy="6.877" r=".15"/>
   <circle cx=".374" cy="3.181" r=".15"/>
   <circle cx="1.166" cy="1.664" r=".15"/>
   <circle cx="1.151" cy=".093" r=".15"/>
   <circle cx="1.151" cy="10.093" r=".15"/>
   <circle cx="1.302" cy="4.451" r=".15"/>
   <circle cx="3.047" cy="3.763" r=".15"/>
  </pattern>
 </defs>
 <g transform="translate(-245.02 67.575)">
  <path d="m723.16 347.35c4.2739 13.431 30.869 20.483 47.808 18.374 18.174-2.2628 36.653-13.888 38.712-32.837 3.0591 1.3423 4.0574-2.9496 10.455 7.5222 2.1831 14.487 0.33214 25.238-2.6215 34.969-1.6711 8.0046-28.327 22.104-43.039 24.516-28.956 4.7477-61.93-7.4747-59.223-10.963-1.795-13.789-5.8709-25.913-2.7814-37.455 3.6767-5.7053 7.3486-11.23 10.689-4.126z" fill="#a26f89" fill-rule="evenodd"/>
  <path d="m720.3 342.52c-13.362 9.8834-10.29 32.244-4.6942 47.681 24.047 13.854 61.962 19.312 100.43-12.019 4.66-8.4193 8.0989-42.667-6.3372-48.218 1.2009 41.279-68.814 50.428-89.403 12.556z" fill="none"/>
  <path d="m652.67 15.442c11.227 2.2311 23.153 8.2149 36.68 19.02 19.636 20.325 65.432 81.914 93.027 136.16 4.3824 9.6358 9.8672 25.589 9.6364 33.059 9.256 54.485 15.056 107.55 12.311 148.22-22.313 17.226-53.245 24.926-78.191 0.12369 3.4-44.812 0.54227-105.1-14.512-128.61l-66.833-96.492c-7.3035-32.421-3.23-72.382 7.8826-111.49z" fill="#d799b8" fill-rule="evenodd"/>
  <path d="m395.63 14.656s76.966-24.824 127.18-23.724c66.7 1.4604 129.6 24.327 129.12 24.365 0 0-18.477 63.551-7.2818 113.26 1.5676 56.669 7.5059 103.51 11.544 148.08 8.4627 93.387 50.718 298.15 50.718 298.15-44.859 17.118-121.14 38.988-143.43 7.6537l-28.771-86.296c-8.3966 31.183-20.11 60.808-33.116 89.826-22.386 26.943-104.2 13.548-159.95-9.7538 0 0 44.807-205.1 53.53-298.56 4.3621-46.728 2.1925-89.746 4.0139-148.14 13.122-50.22-3.5559-114.86-3.5559-114.86z" fill="#d799b8" fill-rule="evenodd"/>
  <path d="m394.66 10.924s76.966-24.824 127.18-23.725c66.7 1.4602 129.6 24.328 129.12 24.365 0 0-18.477 63.551-7.2818 113.26 1.5676 56.669 7.5059 103.51 11.544 148.08 8.4627 93.387 50.718 298.15 50.718 298.15-44.859 17.117-121.14 38.988-143.43 7.6537l-28.771-86.296c-8.3966 31.182-20.11 60.808-33.116 89.826-22.386 26.943-104.2 13.547-159.95-9.7538 0 0 44.807-205.1 53.53-298.56 4.3622-46.729 2.1925-89.746 4.014-148.14 13.122-50.219-3.556-114.86-3.556-114.86z" fill="url(#g)" fill-rule="evenodd"/>
  <path d="m393.96 15.877c-9.3993 2.7958-20.492 6.3155-32.801 17.507l-99.687 149.65c-9.9327 9.9138-10.391 23.422-4.0523 30.182 46.945 44.359 93.45 63.943 134.13 114.48 35.589-7.8191 48.903-30.139 54.536-57.458-31.118-31.087-48.026-49.145-91.858-77.166 13.224-18.65 22.133-35.107 44.409-63.489 10.212-31.273 4.257-75.171-4.6789-113.71z" fill="#d799b8" fill-rule="evenodd"/>
  <path d="m394.51 15.144c-9.3993 2.7958-20.492 6.3154-32.801 17.507l-99.687 149.65c-9.9327 9.9138-10.391 23.422-4.0523 30.182 46.945 44.359 93.45 63.943 134.13 114.48 35.589-7.8191 48.903-30.139 54.536-57.459-31.118-31.087-48.026-49.145-91.858-77.166 13.224-18.65 22.133-35.107 44.409-63.489 10.212-31.273 4.257-75.171-4.6789-113.71z" fill="url(#f)" fill-rule="evenodd"/>
  <path d="m477.26 279.26c-19.814 23.101-50.589 55.343-79.92 75.476l29.722 20.34c24.027-17.144 50.981-43.402 62.045-72.741-3.884-7.9446-6.9565-19.021-11.848-23.075z" fill="#a26f89" fill-rule="evenodd"/>
  <path d="m475.46 274.55c-1.7798 7e-3 -3.4516 0.81719-4.5744 2.1282-18.108 25.305-45.659 55.928-75.733 73.089-3.4863 2.3898-3.325 7.3653 0.30984 9.5474l28.879 17.318c2.136 1.2792 4.8801 1.1822 6.9015-0.25388 24.576-17.536 48.349-40.656 59.977-71.489 0.50541-1.3469 0.46603-2.824-0.11151-4.1449l-9.8967-22.632c-0.95854-2.1998-3.2433-3.6153-5.7521-3.5634zm1.0205 10.485c6.5065 2.1154 6.1565 11.332 9.7417 18.344-10.267 25.673-36.647 52.98-58.366 68.995-7.8137-6.8296-28.214-17.678-21.3-20.202 27.429-16.047 54.506-44.546 69.924-67.137z" color="#000000" fill-rule="evenodd" style="block-progression:tb;text-indent:0;text-transform:none"/>
  <path d="m527.79 462.34c-14.427 42.692-28.545 81.007-41.445 102.17-5.4198 8.8919-15.137 14.875-27.26 15.285-30.324 1.024-76.866-12.189-112.98-28.187l-4.6926 23.915c21.125 10.231 50.299 19.413 84.325 24.231 31.474 4.456 60.013 2.8129 72.238-9.6659 16.194-27.879 27.067-62.432 38.513-96.267z" fill="#a26f89" fill-rule="evenodd"/>
  <path d="m533.05 119.02c-24.28-41.024-43.16-81.012-45.253-119.87-0.64322-11.949-0.93394-32.609 15.811-37.688 0 0 16.533 7.2795 25.595 7.9624 10.404 0.78438 30.865-4.6 30.865-4.6 10.631-1.5844 15.328 14.32 11.875 36.684-6.6897 43.324-12.412 88.002-38.894 117.51z" fill="#535061" fill-rule="evenodd"/>
  <path d="m506.31-59.735c-13.051 4.7728-23.769 16.089-34.542 27.256-7.6082 22.527-14.064 45.417-28.316 65.872 11.045 15.787 22.032 17.351 33.042 25.364l-17.277 12.389 70.458 63.845s-10.851 39.474-18.096 83.185c-5.2009 31.379-10.783 57.153-8.0162 88.72 2.6416 30.136 2.5588 60.619 8.194 90.383 12.064 63.721 54.536 187.2 54.536 187.2 10.815 6.4077 19.974 14.936 37.318 13.013 32.631-1.7421 70.416-14.628 103.02-22.594l-4.4284-23.822-72.691 23.302c-18.766 1.992-32.343 3.1423-46.845-10.5 0 0-31.586-86.001-41.277-128.08-12.54-54.454-19.585-106.14-18.04-161.86 0.89502-32.29 17.786-95.431 17.786-95.431 18.566-57.222 39.898-76.456 64.537-104.64l-18.255-12.262 23.27-27.212c-11.405-16.297-15.004-34.704-21.91-57.462-7.2478-24.696-21.234-27.956-30.492-36.868l-29.431 6.6937zm0.97235 26.303s13.46 6.688 20.834 7.3183c8.4655 0.72397 25.113-4.2178 25.113-4.2178 8.6488-1.4492 12.476 13.151 9.6763 33.669-5.4233 39.75-10.058 80.742-31.592 107.81-19.773-37.652-35.163-74.351-36.882-110-0.52875-10.964-0.77119-29.917 12.851-34.571z" fill="#a26f89" fill-rule="evenodd"/>
  <path d="m445.22 254.72c-2.9598 6.3528-0.72712 13.747-2.75 20.344-3.3642 20.467-16.907 40.174-37.531 46.094-8.9467 3.038-18.57 4.0989-28.094 3.8125 9.0357 11.856 20.051 22.015 32.219 30.625 29.503-2.7431 53.575-26.655 62.75-53.812 3.1777-9.795 2.3536-21.532-5.0625-29.25-5.3334-7.9047-10.914-16.826-20.75-19.312l-0.46193 0.88691-0.31932 0.61309z" fill="#a26f89" fill-rule="evenodd" stroke="#000" stroke-width="4"/>
  <path d="m653.22 14.709c11.227 2.2311 23.153 8.2149 36.68 19.02 19.636 20.325 65.432 81.914 93.027 136.16 4.3824 9.6359 9.8673 25.589 9.6364 33.059 9.2559 54.485 15.056 107.55 12.311 148.22-22.313 17.225-53.245 24.926-78.192 0.12369 3.3999-44.812 0.5422-105.1-14.513-128.61l-66.833-96.491c-7.3035-32.421-3.23-72.382 7.8826-111.49z" fill="url(#e)" fill-rule="evenodd"/>
  <path d="m575.62 273.05c20.014 22.945 42.798 45.936 72.304 65.838-0.25253 10.726-14.65 18.262-23.045 20.546-24.163-14.101-54.371-38.688-65.697-69.363 6.127-8.1745 12.503-17.31 16.439-17.021z" fill="#a26f89" fill-rule="evenodd"/>
  <path d="m575.66 266.28c-1.5878 6e-3 -3.1002 0.64318-4.2145 1.72-7.0225 6.7936-11.185 13.708-14.509 20.159-0.73076 1.4131-0.82014 3.0489-0.24812 4.5271 12.094 31.252 40.588 52.21 64.879 69.245 1.3341 0.93222 3.01 1.3124 4.6421 1.05 13.393-2.186 20.328-11.665 25.058-19.857 1.4817-2.5636 0.7074-5.7723-1.8019-7.4695-28.6-19.292-48.87-44.236-68.985-67.296-1.1878-1.355-2.9635-2.1216-4.8208-2.0793zm0.88771 13.459c17.382 20.095 37.611 41.573 62.967 59.78 6.2588 5.0973-5.898 15.473-13.267 16.857-28.62-13.31-54.807-39.152-62.912-65.292 1.7769-3.276 6.9938-15.744 13.212-11.345z" color="#000000" fill-rule="evenodd" style="block-progression:tb;text-indent:0;text-transform:none"/>
  <path transform="matrix(6.1748 2.8404 -2.9942 5.8576 3192.6 -5712.2)" d="m54.168 995.48c0 0.79391-0.63143 1.4375-1.4103 1.4375-0.77891 0-1.4103-0.64359-1.4103-1.4375s0.63143-1.4375 1.4103-1.4375c0.77792 0 1.4089 0.64201 1.4103 1.4349" color="#000000" fill-rule="evenodd" stroke="#000" stroke-linejoin="round" stroke-width="1.063"/>
  <path transform="matrix(6.1748 2.8404 -2.9942 5.8576 3192.6 -5712.2)" d="m58.632 1003.8c0 0.7939-0.63143 1.4375-1.4103 1.4375-0.77891 0-1.4103-0.6436-1.4103-1.4375s0.63143-1.4375 1.4103-1.4375c0.77792 0 1.4089 0.642 1.4103 1.4349" color="#000000" fill-rule="evenodd" stroke="#000" stroke-linejoin="round" stroke-width="1.063"/>
  <path transform="matrix(6.1748 2.8404 -2.9942 5.8576 3192.6 -5712.2)" d="m63.632 1011.2c0 0.7939-0.63143 1.4375-1.4103 1.4375-0.77891 0-1.4103-0.6436-1.4103-1.4375s0.63143-1.4375 1.4103-1.4375c0.77792 0 1.4089 0.642 1.4103 1.4349" color="#000000" fill-rule="evenodd" stroke="#000" stroke-linejoin="round" stroke-width="1.063"/>
  <path d="m557.03-64.031c-10.08 0.26255-18.935 9.342-29.125 7.3438-9.3037-3.1457-20.18-10.383-29.562-3.5312-20.765 12.422-34.508 33.415-41.781 56.156-14.477 3.2169-28.737 7.3123-43.524 9.4235-12.3 2.8895-24.697 6.18-36.508 10.795-9.6805 4.1779-18.509 10.685-23.219 20.406-32.572 49.35-65.104 98.881-96.934 148.75-3.2105 7.1886-10.679 14.667-6.6602 22.967 5.0866 11.639 17.159 17.95 25.895 26.513 34.207 28.815 72.496 53.059 103.54 85.268-4.1384 1.5398-6.3715 6.8109-2.8125 10.094 2.1881 4.3119 7.9903 7.1251 5.3675 12.615-11.077 75.757-25.317 151.31-40.992 226.07-1.648 4.4364-2.3209 11.653 3.5938 13.094 37.12 12.83 75.833 24.109 115.53 23.594 13.969-1.0824 29.899-2.2161 40.406-12.656 17.137-26.407 26.519-57.04 35.281-87.188 9.8754 27.849 16.728 56.861 27.875 84.156 13.772 15.17 36.204 15.429 55.156 13.781 31.091-3.474 61.651-12.711 90.719-24.438 5.2832-3.0704 0.41724-10.011 0.34375-14.469-17.127-83.578-34.021-167.44-43.753-252.21-5.3618-58.716-13.344-117.27-15.122-176.25 19.979 29.883 40.83 59.281 60.312 89.438 9.9493 25.395 11.455 53.188 12.808 80.218 0.39744 12.018 0.27973 24.049-0.21428 36.063-3.4631 0.0314-5.7573 3.6794-8.8438 4.875-4.7133 9.6865-4.3137 21.537-2.9791 32.172 1.3218 6.1747 2.0577 13.616 8.7916 16.297 19.003 12.315 43.728 11.018 64.634 4.9284 11.584-4.0215 23.178-10.48 31.803-18.96 4.2324-3.4494 4.4943-8.6286 4.5312-13.594 1.2094-9.8089 3.5643-20.762-0.1875-30.219-2.7072-4.8084-8.1654-6.5096-12.781-8.875 3.7517-46.838-5.0366-93.439-12.906-139.31-4.6833-21.842-17.877-40.217-28.334-59.576-21.165-35.159-42.89-70.363-70.259-101.02-19.84-16.16-45.982-19.228-69.875-25.844-9.1092-2.2369-18.196-4.3344-27.344-6.2188-3.5808-20.087-10.064-41.506-27.062-54.375-4.3788-4.1079-9.8284-6.1988-15.812-6.2812zm-4.5312 8.875c11.233 0.86753 20.993 8.4477 28.156 16.906 8.6565 11.599 7.9597 27.024 12.366 40.328 2.4868 11.202 6.7715 22.274 14.041 31.297-8.3067 9.3245-16.694 18.578-25.031 27.875 6.309 4.0783 12.647 8.1115 18.938 12.219-37.442 38.672-63.4 89.181-72.658 142.45-5.0112 27.457-8.491 55.17-7.541 83.143 0.41017 37.446 2.4858 75.14 12.492 111.34 13.21 53.168 27.022 106.48 47.443 157.33 4.0477 8.0918 14.653 9.8739 22.764 11.268 19.736 1.829 39.16-4.2678 57.688-10.156 12.528-4.1953 24.678-9.125 37.375-12.562 3.6686 3.5383 7.9049 8.378 5.5625 13.812-1.4887 5.8999-9.7278 5.0561-14.438 7.5312-29.924 8.9266-60.876 16.075-92.219 16.719-10.98-0.68264-21.564-6.3874-29.656-13.562-13.014-44.209-27.23-88.132-39.531-132.5-6.1977-27.044-12.224-54.219-17.101-81.554-4.4648-38.286-5.0737-77.209-2.1901-115.69 6.2706-44.079 18.403-87.177 29.521-130.29 3.6481-16.456 11.883-31.202 16.188-47.459 8.3705-28.935 16.225-59.43 13.582-89.856-0.89131-8.9726-6.7122-20.363-17.281-19.062-8.9397 0.58076-18.194 7.046-26.83 1.7868-8.598-4.0639-20.729-4.2598-26.638 4.307-7.2486 12.323-4.8571 27.886-3.486 41.553 5.6898 35.441 19.02 69.462 36.267 100.92-2.7318 3.1362-3.7819 15.566-8.1227 8.9591-17.148-18.482-35.448-35.711-55.69-50.772 5.8706-4.1373 11.728-8.2927 17.594-12.438-11.452-8.5261-22.872-17.095-34.344-25.594 11.342-17.445 13.633-38.947 24.56-56.728 6.8838-13.86 17.951-28.57 34.627-29.99 7.8162-2.0744 13.864 5.9546 21.75 4.9688 7.86 0.22372 14.507-4.3756 21.844-6.5zm-40.469 26.031c7.9669 0.63549 14.864 7.1267 23.125 4.6875 7.6105-0.6879 15.886-6.3964 22.906-1.0312 4.3722 4.6123 0.8009 11.706 2.3382 17.278 0.98557 27.93-6.5696 55.332-14.463 81.847-3.2511 10.139-6.9509 20.129-11.219 29.906-16.64-33.065-31.499-68.34-33.82-105.69 0.59666-8.2876-1.2166-19.253 5.7887-25.282 1.5594-1.116 3.4038-1.7908 5.3438-1.7188zm-59.938 37.875c-3.3895 9.0581-5.4326 19.424-13.125 26.031 10.64 7.9005 21.246 15.847 31.906 23.719-5.8115 4.116-11.625 8.229-17.438 12.344 26.758 19.516 50.885 42.601 73.156 67.125-8.8646 39.051-18.644 78.04-23.626 117.84-2.8795 39.295-2.4554 79.118 3.1569 118.1 6.1437 29.88 11.591 60.217 17.562 90.125-9.8287 35.643-23.809 70.178-40.375 103.19-8.7838 10.621-24.286 10.185-36.871 9.5028-32.327-2.251-63.693-12.075-93.504-24.315 14.376-68.098 27.826-136.42 38.438-205.22 5.1402 3.9505 10.007 9.7528 16.312 11.469 21.188 0.48689 39.22-14.202 52.188-29.562 9.1486-11.833 14.813-26.491 16.281-41.156-2.3628-11.388-10.918-20.536-18-29.281-3.6674-4.1831-10.899-10.632-16.188-5.4375-2.0542 5.2536-4.4757 1.6949-7.6562-1.5312-8.3784-8.5041-18.368-16.035-26.344-24.594-3.3667-34.828-7.6638-70.265-2.3125-105.09 5.8691-28.163 7.0854-57.719-0.38186-85.662-0.97353-4.386-2.1274-8.7276-3.2119-13.088 17.106-5.8653 33.25-14.365 51.125-17.844-0.36458 1.1146-0.72917 2.2292-1.0938 3.3438zm153.5-1.8125c14.149 2.7307 26.516 10.222 39.643 15.609 1.1361 3.2937-1.8694 9.0009-2.1826 13.285-7.4644 29.131-8.4147 60.098-2.2862 89.601 4.8887 63.137 7.1567 126.59 13.705 189.53 10.258 79.269 27.255 157.51 44.496 235.45-28.792 6.5272-56.456 20.372-86.438 20.375-9.7436-0.72531-22.611-3.2673-25.071-14.538-21.272-53.876-37.118-109.85-50.518-166.21-7.9204-34.389-7.6797-70.166-7.7706-105.35-0.21993-31.211 6.1204-62.045 13.394-92.217 7.7179-31.949 23.344-61.342 43.825-86.858 8.675-11.312 17.768-22.371 26.735-33.488-6.3941-4.1276-12.803-8.2324-19.188-12.375 7.7624-8.7382 15.916-17.489 23.469-26.188-7.2997-7.718-12.275-17.343-15.375-27.5 1.1875 0.29167 2.375 0.58333 3.5625 0.875zm53.281 18.594c13.785 4.011 27.339 10.853 35.841 22.944 32.595 38.373 62.936 79.138 86.034 123.9 7.9806 18.37 8.1454 38.691 12.295 58.067 6.4075 39.573 13.299 79.806 8.7983 120-12.165 9.1238-26.872 16.086-42.5 14.188-9.9451 0.15198-19.926-2.9541-27.25-9.7812 1.7877-36.393 2.6812-73.539-6.7188-108.97-1.1214-6.745-4.3933-13.827-4.4062-20.312 2.0237-4.3626 5.0911-8.9316 10.469-9.125 3.14-0.79729 8.4215-1.0426 10.406-2.0625-5.1495-1.4884-11.241-2.4553-16.469-1.0938-2.9492 2.4272-5.1795 5.5516-8.1562 8-1.8026-4.9801-4.2362-9.6524-7.2188-14.031 4.966-4.9097 10.444-12.157 18.469-10.188 1.1496 0.17956 5.067 1.454 4.5312-0.625-6.4262-3.9588-15.268-3.9634-21.062 1.25-2.9786 1.3705-7.3493 5.1163-8.8737 0.17967-17.74-25.055-33.418-51.638-51.876-76.023-6.7572-32.13-2.0915-65.408 5.6562-96.875 0.67708 0.1875 1.3542 0.375 2.0312 0.5625zm73.969 171.78c-0.0429 0.0577 0.10364 0.0325 0 0zm-339.31-169.25c6.2071 31.447 11.25 64.539 3.6562 96.156-2.2862 6.6104-9.1579 10.42-12.812 16.406-12.238 14.59-17.969 33.279-28.25 48.969-5.5759 3.5867-13.639 3.2877-20.156 5.4062-1.6803 0.19762-4.2449-0.55602-1.2188 0.625 4.9883 1.6856 10.291 2.2133 15.5 3.1562-5.086 1.9492-11.619 6.4749-14.281 9.4375 6.9415-3.183 14.342-7.9077 22.156-7.2812 19.955 13.121 37.511 29.836 56.375 44.562 8.0863 8.0074 16.882 15.937 23.938 24.656 0.63767 13.263-5.4195 26.723-14.625 36.031-8.852 7.2121-19.106 14.576-30.906 14.719-6.8742-4.5831-12.086-12.643-18.319-18.439-31.671-33.503-72.295-56.416-107.24-86.249-4.6466-7.9724-8.8131-18.314-3.75-27.219 34.585-51.482 70.648-102.24 104.75-153.94 6.8455-6.0642 16.379-6.5251 24.75-9.0938 0.14583 0.69792 0.29167 1.3958 0.4375 2.0938zm-57.969 180.38c0.0305-0.14874-0.23943 0.24793 0 0zm60.531-62.781c-0.80815 23.278-1.7576 46.551-2.9375 69.812-10.671-8.5493-21.715-16.613-33.062-24.25 14.136-16.057 23.452-35.335 36.25-52.312-0.0833 2.25-0.16667 4.5-0.25 6.75zm49.656 106.47c9.1211 0.84504 14.09 10.37 19.031 16.875 4.6553 8.188 12.463 17.179 8.5625 27.281-5.3933 15.873-14.776 30.817-26.829 42.433-10.742 9.3183-24.656 20.173-39.827 16.036-12.46-5.1727-22.422-15.653-29.094-27.156-1.9072-2.8682 0.17446-8.0313 3.7812-5 16.082 4.1422 33.103-3.0934 45.875-12.469 11.523-9.1188 13.382-25.206 15.5-38.781 0.63388-6.1645 1.171-12.496-0.25-18.594 1.0811-0.22665 2.148-0.55039 3.25-0.625zm369.38 82c3.5518 4.0647 3.4851 10.425 4.375 15.625-0.78187 8.3199 1.9666 17.814-2.3438 25.344-6.8862 9.0028-18.082 13.935-28.242 18.525-22.346 9.7266-48.742 7.5341-70.133-3.7434-5.6187-10.657-4.9809-23.727-2.9375-35.344 0.83272-3.3837 2.2434-6.6256 4.9062-9 7.6353 6.8601 11.19 18.578 22.156 21 20.025 6.4718 45.09 5.8996 61.531-8.8438 5.6078-7.038 8.5817-16.122 7.6562-25.094 1.0104 0.51042 2.0208 1.0208 3.0312 1.5312zm-286.59 151.84c2.2366 6.7233 5.5615 14.05 1.6871 20.887-8.8014 26.143-17.721 52.696-30.968 76.863-10.453 10.603-25.841 14.967-40.624 14.692-34.73 1.4874-68.275-9.5383-101.11-19.436-4.9174-1.2623-12.371-2.632-11.392-9.3184-0.30994-4.497 3.4035-11.782 8.5625-8.0312 22.08 8.383 45.318 14.114 68.389 18.995 17.195 3.0073 35.23 5.431 52.486 2.005 11.927-3.9286 18.467-15.589 21.531-27.059 9.4324-25.026 19.63-49.71 29.688-74.504 0.58333 1.6354 1.1667 3.2708 1.75 4.9062z" color="#000000" fill-rule="evenodd" style="block-progression:tb;text-indent:0;text-transform:none"/>
 </g>
</svg>
