<?xml version='1.0' encoding='utf-8'?>
<svg xmlns="http://www.w3.org/2000/svg" enable-background="new 0 0 1920 1920" version="1.1" viewBox="0 0 1920 1920">
<g stroke-width=".0938">
	<path d="m593.14 124.15c13.36-6.79 29.16-8.82 43.7-5.05 13.32 3.29 25.34 10.49 35.88 19.11 13.59 11.21 25 24.82 35.02 39.24 12.34 17.92 22.62 37.25 30.69 57.45 16.15 41.57 28.53 84.53 38.38 128 17.13 75.76 26.48 152.99 34.85 230.13 12.05 111.27 22.63 222.68 33.85 334.03 4.6 47.32 9.94 94.56 14.45 141.88 2.68 30.58 4.14 61.37 1.99 92.03-2.81 38.82-12.81 78.21-35.66 110.28-15.1 22.05-36.03 39.32-58.38 53.64 7.79-1.26 15.29-3.87 23.02-5.49 23.65-5.5601 47.65-10.36 72-11.2 12.51-0.3099 25.37 0.2001 37.22 4.62 7.7 2.8301 14.8 8.1901 18.17 15.86 2.93 6.2999 2.78 13.44 2.31 20.23-0.85 9.59-4.95 19.09-12.27 25.5-8.69 7.74-20.2 11.28-31.47 13.14-26.19 4.1799-52.62-0.05-78.91-0.27-14.39-0.02-28.76-0.76-43.15-0.75 51.28 16.55 102.54 33.18 153.74 49.96-2.21 6.39-4.16 12.86-6.32 19.27-85.03-27.59-170.02-55.31-255.08-82.83-77.52 39.49-155.06 78.96-232.55 118.53-3.15-5.99-6.05-12.1-9.36-17.99 57.8-29.85 115.97-59.01 173.81-88.81-26.99 2.0299-54.07 2.3199-81.12 2.76-22.98 0.84-46.1 3.72-69.02 0.4299-11.5-1.66-23.29-4.85-32.42-12.36-7.2-5.8199-11.8-14.52-13.11-23.63-1.49-8.9399-1.24-18.81 3.81-26.66 4.54-7.1699 12.41-11.42 20.36-13.75 12.8-3.71 26.31-3.63 39.5-2.98 24.35 1.62 48.29 6.76 71.98 12.37-30.16-24.35-52.24-57.56-66.62-93.32-16.89-41.87-24.29-86.87-28.07-131.65-2.39-27.91-3.15-55.91-3.84-83.9-3.79-184.34 6.95-369.44 39.7-551.06 12.36-68 27.84-135.45 47.25-201.79 9.82-33.66 21.66-67.54 42.76-95.96 11.62-15.54 25.33-30.26 42.91-39.01m0.25 9.61c-9.44 4.56-17.28 11.68-24.5 19.16-9.68 11.88-16.99 25.52-22.2 39.91-5.8 13.53-9.77 27.74-15.42 41.32-1.2 3.54-2.4 7.08-3.54 10.64-2.31 3.68-2.6 8.11-3.88 12.17-4.74 14.2-7.74 28.89-11.45 43.36-11.15 52.64-22.18 105.32-29.88 158.59-1.82 7.93-2.43 16.06-3.53 24.11-5.68 36.88-10.15 73.95-14.71 110.99-0.81 9.93-2.04 19.82-3.54 29.67-0.54 6.17-1.18 12.33-2.09 18.46-0.91 19-3.83 37.85-4.83 56.86-1.98 10.89-2.07 22.01-3.39 32.99 0.09 15.07-2.41 29.98-2.71 45.04-0.75 8.99-0.86 18.02-1.81 27-0.83 23.64-2.5 47.27-2.69 70.93-1.4 11.94-0.61 23.98-0.93 35.98-0.72 40.35-0.95 80.71-0.44 121.07 0.05 12.03 1.22 24.03 1.84 36.05 0.18 18.6 3.51 36.96 4.95 55.46 0.77 6.1699 2.59 12.17 3 18.4 1.65 13.09 6.16 25.57 8.94 38.44 5.29 18.87 11.34 37.63 19.87 55.31 8.57 18.57 20.23 35.66 34.01 50.76 22.94 26.11 52.58 46.47 85.62 57.5 20.45 7.4299 42.62 9.13 64.19 7.3199 14.93-1.62 29.39-6.17 43.3-11.7 20.52-9.9401 39.44-22.83 57.87-36.18 21.48-16.73 41.56-36.15 54.61-60.33 11.8-21.14 16.67-45.29 19.41-69.11 0.74-9.63 2.15-19.24 1.75-28.92-0.14-11.39 0.52-22.81-0.64-34.15-0.44-6.2999-0.1-12.63-0.7-18.91-1.25-14.52-1.46-29.13-3.35-43.59-0.23-12.81-1.91-25.54-2.4-38.34-0.82-10.66-2.21-21.28-2.44-31.97-0.28-8.4-1.98-16.68-2.12-25.09-2.27-25.32-4.93-50.61-7.21-75.93-0.44-11.39-2.59-22.61-3.45-33.96-1.73-15.81-2.67-31.68-4.44-47.48-1.14-10.87-2.58-21.72-2.98-32.66-0.76-7.97-1.68-15.92-2.44-23.88-3.72-28.03-4.84-56.32-8.63-84.34-5.16-50.61-9.52-101.31-15.93-151.78-2.69-24.13-6.85-48.05-10.15-72.09-1.84-8.96-3.09-18.02-4.92-26.98-1.8199-11.63-4.83-23.04-6.65-34.67-2.37-9.38-4-18.93-6.69-28.24-5.9-25.79-13.68-51.09-21.72-76.28-1.7-6-5.8199-11.58-4.92-18.06-0.18-0.35-0.54-1.05-0.73-1.4-3.79-6.72-6.14-14.13-10.12-20.74-3.23-5.77-6.36-11.6-9.76-17.26-6.95-12.06-15.28-23.22-23.79-34.19-6.2401-6.43-11.89-13.46-18.71-19.3-9.97-8.49-20.68-16.67-33.23-20.91-12.69-4.8698-27.21-4.2698-39.7 0.9502m-187.05 1199.6c-3.44 1.39-6.11 4.8501-5.7 8.6801 0.12 7.09 5.53 12.77 11.59 15.74 9.2 4.59 19.56 6.08 29.7 7.02 14.32 1.51 28.73 0.38 43.09 0.9 16.63 0.73 33.31 1.39 49.95 0.47 6.88-0.6901 14.36-0.83 20.25-4.9401 0.1-0.5 0.3101-1.51 0.41-2.01-22.46-6.2899-44.86-12.88-67.57-18.24-20.1-4.6399-40.38-9.0299-61.03-10.19-6.94-0.1801-14.18-0.1401-20.69 2.5699m410.8 7.27c-23.33 5.4-46.29 12.21-69.33 18.67 1.69 4.47 7.17 4.9199 11.2 5.8099 16.55 2.38 33.33 1.36 49.99 1.04 24.18-1.73 48.9 1.72 72.61-4.65 7.58-2.1799 15.86-5.5399 19.7-12.93 2.13-4.36 2.78-10.93-1.84-13.93-6.0099-3.86-13.55-3.8199-20.44-3.91-20.95 0.7701-41.53 5.2201-61.89 9.9001z" fill="#fff" stroke="#fff"/>
	<path d="m597.91 1452c1.82-11.69 14.4-20.56 25.99-17.67 3.45 0.67 7.08 3.02 7.66 6.73 0.7 6.6801-0.07 13.51-2.15 19.91 2.58-5.27 6.17-10.29 11.33-13.26 7.71-4.45 17.61-4.0599 25.46-0.1599 6.38 3.5 11.93 11.23 9.05 18.71-3.13 5.59-9.55 8.0599-15.44 9.5599-1.86 0.5901-4.48-0.22-5.59 1.8101 2.5601 0.29 5.1-0.4301 7.66-0.1801 7.31 1.0801 14.26 5.03 18.51 11.15 5.17 7.1 5.8 17.32 1.26 24.89-2.63 5.11-9.45 7.37-14.5 4.46-5.05-2.46-9.05-6.5-13.01-10.38 3.28 5.1901 5.56 11.2 5.23 17.43-0.31 8.66-5.21 17.58-13.41 21.05-4.45 2.08-9.57 3.61-14.45 2.21-4.58-1.6901-7.37-6.5601-7.7-11.27-0.28-5.12 1.06-10.18 2.84-14.94-3.54 6.62-9.36 12.05-16.53 14.48-9.8 3.8099-22.19-0.3301-27.16-9.73-2.28-4.27-3.04-10.42 0.95-13.94 5.08-4.66 12.17-5.89 18.63-7.53-7.23 0.41-15.17-0.0399-21.01-4.86-9.94-7.52-13.78-23.39-5.77-33.61 2.56-3.8199 7.76-5.8 12.04-3.73 7.05 3.23 11 10.33 16.99 14.97-6.6602-6.8101-7.9802-17.04-6.8802-26.1m27.73 24.96c-6.67 1.05-12.15 7.15-12.16 13.96-0.54 7.9199 6.56 15.23 14.49 14.95 7.96 0.33 15.08-7.04 14.55-14.97 0.06-8.4901-8.58-15.53-16.88-13.94z" fill="#fff" stroke="#fff"/>
	<path d="m784.61 1494.3c4.77-3.51 10.94-3.1901 16.56-2.7001 5.38 0.6 11.52 3.64 12.58 9.48 1.43 9.3601-0.54 18.79-2.55 27.93 3.68-8.62 10.22-16.28 18.92-20.06 9.09-3.85 19.61-3.4299 28.77-0.0099 5.34 1.8099 9.68 5.73 13.1 10.11 4.04 5.26 5.52 13 2.26 18.98-6.65 8.87-18.16 11.86-28.59 13.41 12.11-0.02 24.91 3.3199 33.34 12.53 10.18 10.37 12.54 28 4.07 40.1-3.51 5.5499-10.89 8.1899-17.08 5.86-8.12-2.9401-14.2-9.4601-20.36-15.21 3.93 6.42 6.97 13.64 7.09 21.28 0.63 11.58-4.81 23.54-14.47 30.11-6.63 3.66-14.15 6.88-21.88 5.9601-6.41-0.9-11.01-6.52-12.67-12.46-2.24-8.64 0.98-17.3 3.16-25.59-6.62 15.21-24.38 26-40.98 22.16-9.32-2.14-17.98-8.5701-21.32-17.73-1.69-4.5099-2.3-10.11 0.64-14.23 2.47-3.6799 6.51-5.88 10.46-7.64 6.89-2.7799 14.12-4.61 21.36-6.21-9.04 1.4301-18.71 1.85-27.21-2.12-12.57-5.89-20.08-19.63-20.26-33.23 0.36-7.59 3.23-15.32 8.95-20.49 4.27-4.04 11.33-4.38 16.18-1.15 8.62 4.8101 13.71 13.71 21.46 19.61-6.77-7.29-9.8-17.21-9.8-27.03-1.38-12.93 5.76-27.01 18.27-31.66m16.9 58.46c-8.1 3.0699-13.69 11.69-12.95 20.36 0.41 9.02 7.58 17.09 16.47 18.64 9.9399 2.1899 20.72-4.47 23.36-14.28 2.64-8.26-1-17.93-8.21-22.64-5.4-3.67-12.59-4.35-18.67-2.08z" fill="#fff" stroke="#fff"/>
	<path d="m541.26 1612.9c1.8-11.58 14.14-20.47 25.67-17.83 3.44 0.5901 7.15 2.7101 7.83 6.42 1.22 6.55-0.28 13.18-1.54 19.61 2.95-6.35 8-12.06 14.77-14.36 7.01-2.41 14.98-1.62 21.61 1.62 4.33 2.61 8.22 6.6 9.45 11.65 0.88 3.3099 0.27 7.26-2.3 9.6899-4.81 4.9801-11.82 6.8301-18.46 7.75 6.4901 0.5801 13.24 1.51 18.71 5.3601 6.65 4.3799 11.32 12.13 10.92 20.24 0.1 6.0599-2.2 13.08-7.91 16.02-3.6 1.88-7.88 0.8201-11.21-1.12-4.14-2.5699-7.68-5.95-11.15-9.3199 3.05 4.89 5.25 10.49 5.06 16.35 0.08 9.15-5.17 18.61-13.85 22.12-4.26 1.8301-9.06 3.37-13.7 2.0801-3.98-1.37-6.8-5.2001-7.66-9.2101-1.07-5.78 0.62-11.57 2.31-17.04-3.65 7.5299-10.74 13.17-18.84 15.22-10.78 2.84-23.76-3.77-26.28-14.98-1.17-3.9301 0.51-8.27 3.82-10.59 5.74-4.1799 12.96-5.0399 19.55-7.1799-8.04 1.8199-17.27 0.96-23.74-4.55-9.77-7.7899-13.26-24.09-4.53-33.91 2.67-3.6299 7.91-4.8099 11.9-2.7599 5.92 2.98 9.7 8.6699 14.45 13.08-4.63-7.1801-5.91-16.01-4.88-24.36m28.19 24.86c-6.63 0.71-12.09 6.53-12.62 13.14-0.98 8.41 6.72 16.62 15.24 15.75 8.03-0.03 14.73-7.87 13.74-15.78-0.4-8.02-8.48-14.37-16.36-13.11z" fill="#fff" stroke="#fff"/>
	<path d="m619.44 74.81c18.87-2.47 37.91 1.16 55.85 6.93 20.77 6.37 41.55 14.55 58.45 28.56 12.77 10.4 21.92 24.29 31.07 37.78 7.1 9.03 13.35 18.69 20.2 27.91 10.98 15.79 19.67 33.07 27.08 50.8 7.06 17.52 14.51 34.91 20.33 52.91 19.78 59.73 29.19 122.54 31.47 185.31 0.97 18.65 0.25 37.35 1.1 56 2.63 100.65 5.23 201.31 7.97 301.95 8.04 49.89 15.44 99.89 22.75 149.9 12.53 94.41 31.76 187.74 50.12 281.13 9.31 45.86 16.01 92.29 19.05 139 1.92 25.97 1.95 52.02 2.55 78.04 0.72 26.65 1.94 53.37 0.05 80.01-1.45 19.84-4.67 39.65-10.98 58.57-12.61 38.49-33.64 74.01-60.13 104.56-25.22 29.03-55.62 53.73-89.8 71.45-36.52 18.85-77.44 29.32-118.57 29.6-41.73-0.02-83.09-11.09-119.98-30.39-33.3-17.29-63.22-40.63-89.51-67.31-53.56-54.74-93.12-122.66-116.51-195.46-30.24-92.34-39.12-190.34-36.99-287.07 2.3-109.01 17.77-217.11 32.08-325.04 6.04-44.9 11.84-89.85 15.49-135.02 8.48-98.92 11.28-198.28 21.85-297.04 4.32-42.97 12.3-85.62 24.79-126.99 22.32-74.87 59.53-144.88 106.56-207.13 12.65-17.07 26.18-33.82 43.06-46.92 14.61-11.49 32.04-19.78 50.6-22.04m-26.3 49.34c-17.58 8.75-31.29 23.47-42.91 39.01-21.1 28.42-32.94 62.3-42.76 95.96-19.41 66.34-34.89 133.79-47.25 201.79-32.75 181.62-43.49 366.72-39.7 551.06 0.69 27.99 1.45 55.99 3.84 83.9 3.78 44.78 11.18 89.78 28.07 131.65 14.38 35.76 36.46 68.97 66.62 93.32-23.69-5.61-47.63-10.75-71.98-12.37-13.19-0.65-26.7-0.73-39.5 2.98-7.95 2.3301-15.82 6.5801-20.36 13.75-5.05 7.8501-5.3 17.72-3.81 26.66 1.31 9.11 5.91 17.81 13.11 23.63 9.13 7.51 20.92 10.7 32.42 12.36 22.92 3.29 46.04 0.41 69.02-0.4299 27.05-0.4401 54.13-0.7301 81.12-2.76-57.84 29.8-116.01 58.96-173.81 88.81 3.31 5.89 6.21 12 9.36 17.99 77.49-39.57 155.03-79.04 232.55-118.53 85.06 27.52 170.05 55.24 255.08 82.83 2.16-6.41 4.11-12.88 6.32-19.27-51.2-16.78-102.46-33.41-153.74-49.96 14.39-0.01 28.76 0.73 43.15 0.75 26.29 0.22 52.72 4.45 78.91 0.27 11.27-1.8601 22.78-5.4 31.47-13.14 7.32-6.41 11.42-15.91 12.27-25.5 0.47-6.79 0.62-13.93-2.31-20.23-3.37-7.67-10.47-13.03-18.17-15.86-11.85-4.4199-24.71-4.9299-37.22-4.62-24.35 0.8401-48.35 5.64-72 11.2-7.73 1.62-15.23 4.23-23.02 5.49 22.35-14.32 43.28-31.59 58.38-53.64 22.85-32.07 32.85-71.46 35.66-110.28 2.15-30.66 0.69-61.45-1.99-92.03-4.51-47.32-9.85-94.56-14.45-141.88-11.22-111.35-21.8-222.76-33.85-334.03-8.37-77.14-17.72-154.37-34.85-230.13-9.85-43.47-22.23-86.43-38.38-128-8.07-20.2-18.35-39.53-30.69-57.45-10.02-14.42-21.43-28.03-35.02-39.24-10.54-8.62-22.56-15.82-35.88-19.11-14.54-3.77-30.34-1.74-43.7 5.05m4.77 1327.9c-1.1 9.0599 0.22 19.29 6.88 26.1-5.99-4.64-9.94-11.74-16.99-14.97-4.28-2.0701-9.48-0.09-12.04 3.73-8.01 10.22-4.17 26.09 5.77 33.61 5.84 4.8201 13.78 5.27 21.01 4.86-6.46 1.64-13.55 2.87-18.63 7.53-3.99 3.52-3.23 9.67-0.95 13.94 4.97 9.3999 17.36 13.54 27.16 9.73 7.17-2.4301 12.99-7.86 16.53-14.48-1.78 4.7599-3.12 9.8199-2.84 14.94 0.33 4.71 3.12 9.58 7.7 11.27 4.88 1.4 10-0.13 14.45-2.21 8.2-3.4701 13.1-12.39 13.41-21.05 0.33-6.23-1.95-12.24-5.23-17.43 3.96 3.88 7.96 7.92 13.01 10.38 5.05 2.91 11.87 0.65 14.5-4.46 4.54-7.5699 3.91-17.79-1.26-24.89-4.25-6.12-11.2-10.07-18.51-11.15-2.56-0.25-5.1 0.4701-7.66 0.1801 1.11-2.03 3.73-1.22 5.59-1.8101 5.89-1.5 12.31-3.97 15.44-9.5599 2.88-7.48-2.67-15.21-9.05-18.71-7.85-3.9-17.75-4.29-25.46 0.1599-5.16 2.97-8.75 7.99-11.33 13.26 2.08-6.4 2.85-13.23 2.15-19.91-0.58-3.71-4.21-6.0599-7.66-6.73-11.59-2.8899-24.17 5.98-25.99 17.67m186.7 42.28c-12.51 4.6499-19.65 18.73-18.27 31.66 0 9.8201 3.03 19.74 9.8 27.03-7.75-5.9-12.84-14.8-21.46-19.61-4.85-3.23-11.91-2.89-16.18 1.15-5.72 5.1699-8.59 12.9-8.95 20.49 0.18 13.6 7.69 27.34 20.26 33.23 8.5 3.97 18.17 3.55 27.21 2.12-7.24 1.6-14.47 3.4301-21.36 6.21-3.95 1.76-7.99 3.9601-10.46 7.64-2.94 4.12-2.33 9.7201-0.64 14.23 3.34 9.16 12 15.59 21.32 17.73 16.6 3.84 34.36-6.9501 40.98-22.16-2.18 8.29-5.4 16.95-3.16 25.59 1.66 5.9401 6.26 11.56 12.67 12.46 7.73 0.9199 15.25-2.3 21.88-5.9601 9.66-6.5699 15.1-18.53 14.47-30.11-0.12-7.64-3.16-14.86-7.09-21.28 6.16 5.75 12.24 12.27 20.36 15.21 6.19 2.33 13.57-0.3101 17.08-5.86 8.47-12.1 6.11-29.73-4.07-40.1-8.43-9.21-21.23-12.55-33.34-12.53 10.43-1.55 21.94-4.54 28.59-13.41 3.26-5.98 1.78-13.72-2.26-18.98-3.42-4.38-7.76-8.3-13.1-10.11-9.16-3.42-19.68-3.8401-28.77 0.0099-8.7 3.78-15.24 11.44-18.92 20.06 2.01-9.14 3.98-18.57 2.55-27.93-1.06-5.84-7.2-8.88-12.58-9.48-5.62-0.49-11.79-0.81-16.56 2.7m-243.35 118.61c-1.03 8.35 0.25 17.18 4.88 24.36-4.75-4.41-8.53-10.1-14.45-13.08-3.99-2.05-9.23-0.87-11.9 2.7599-8.73 9.8201-5.24 26.12 4.53 33.91 6.47 5.51 15.7 6.37 23.74 4.55-6.59 2.14-13.81 3-19.55 7.1799-3.31 2.3201-4.99 6.66-3.82 10.59 2.52 11.21 15.5 17.82 26.28 14.98 8.1-2.05 15.19-7.6901 18.84-15.22-1.69 5.47-3.38 11.26-2.31 17.04 0.86 4.01 3.68 7.8401 7.66 9.2101 4.64 1.2899 9.44-0.25 13.7-2.0801 8.68-3.51 13.93-12.97 13.85-22.12 0.19-5.86-2.01-11.46-5.06-16.35 3.47 3.37 7.0099 6.75 11.15 9.3199 3.33 1.9401 7.61 3 11.21 1.12 5.71-2.9399 8.01-9.96 7.91-16.02 0.4-8.1101-4.27-15.86-10.92-20.24-5.47-3.8501-12.22-4.78-18.71-5.3601 6.64-0.9199 13.65-2.7699 18.46-7.75 2.57-2.4299 3.18-6.38 2.3-9.6899-1.23-5.05-5.12-9.04-9.45-11.65-6.63-3.24-14.6-4.03-21.61-1.62-6.77 2.3-11.82 8.01-14.77 14.36 1.26-6.4299 2.76-13.06 1.54-19.61-0.68-3.71-4.39-5.83-7.83-6.42-11.53-2.6397-23.87 6.2501-25.67 17.83z" fill="#C2272D" stroke="#C2272D"/>
	<path d="m406.34 1333.3c6.51-2.71 13.75-2.75 20.69-2.5699 20.65 1.16 40.93 5.55 61.03 10.19 22.71 5.3601 45.11 11.95 67.57 18.24-0.1 0.5-0.31 1.51-0.41 2.01-5.89 4.1101-13.37 4.25-20.25 4.9401-16.64 0.92-33.32 0.26-49.95-0.47-14.36-0.52-28.77 0.61-43.09-0.9-10.14-0.9401-20.5-2.4301-29.7-7.02-6.06-2.97-11.47-8.65-11.59-15.74-0.41-3.83 2.26-7.2901 5.7-8.6801z" fill="#C2272D" stroke="#C2272D"/>
	<path d="m817.14 1340.6c20.36-4.6799 40.94-9.13 61.89-9.9 6.89 0.0901 14.43 0.05 20.44 3.91 4.6201 3 3.97 9.5701 1.84 13.93-3.84 7.39-12.12 10.75-19.7 12.93-23.71 6.37-48.43 2.92-72.61 4.65-16.66 0.3199-33.44 1.34-49.99-1.04-4.03-0.89-9.51-1.34-11.2-5.8099 23.04-6.46 46-13.27 69.33-18.67z" fill="#C2272D" stroke="#C2272D"/>
	<path d="m625.64 1477c8.3-1.59 16.94 5.4501 16.88 13.94 0.53 7.9299-6.59 15.3-14.55 14.97-7.93 0.28-15.03-7.03-14.49-14.95 0.01-6.8101 5.49-12.91 12.16-13.96z" fill="#C2272D" stroke="#C2272D"/>
	<path d="m801.51 1552.8c6.08-2.27 13.27-1.59 18.67 2.08 7.21 4.7101 10.85 14.38 8.21 22.64-2.64 9.8101-13.42 16.47-23.36 14.28-8.89-1.55-16.06-9.62-16.47-18.64-0.74-8.6701 4.85-17.29 12.95-20.36z" fill="#C2272D" stroke="#C2272D"/>
	<path d="m569.45 1637.8c7.88-1.26 15.96 5.09 16.36 13.11 0.99 7.91-5.71 15.75-13.74 15.78-8.52 0.87-16.22-7.34-15.24-15.75 0.53-6.61 5.99-12.43 12.62-13.14z" fill="#C2272D" stroke="#C2272D"/>
	<path d="m593.39 133.76c12.49-5.22 27.01-5.82 39.7-0.95 12.55 4.24 23.26 12.42 33.23 20.91 6.82 5.84 12.47 12.87 18.71 19.3 8.5099 10.97 16.84 22.13 23.79 34.19 3.4 5.66 6.53 11.49 9.76 17.26 3.98 6.61 6.33 14.02 10.12 20.74-0.85 1.99-2.31 3.83-4.72 3.53-11.32 0.13-22.64 0.33-33.97 0.55-2.98-0.08-6.24 0.27-8.87-1.42-7.4-4.69-15.09-9.31-23.71-11.32-8.01-1.89-16.13-3.63-24.39-3.63-16.28-0.46-32.28 3.47-47.69 8.37-6.09 2.03-11.71 5.2-17.77 7.29-5.74 1.38-11.7 0.48-17.53 0.67-7.2-0.25-14.37 0.46-21.56 0.47-0.26-1.65-0.55-3.29-0.76-4.93 1.14-3.56 2.34-7.1 3.54-10.64 5.65-13.58 9.62-27.79 15.42-41.32 5.21-14.39 12.52-28.03 22.2-39.91 7.22-7.48 15.06-14.6 24.5-19.16z" fill="#F1E9BB" stroke="#F1E9BB"/>
	<path d="m585.35 241.29c15.41-4.9 31.41-8.83 47.69-8.37 8.26 0 16.38 1.74 24.39 3.63 8.62 2.01 16.31 6.63 23.71 11.32 2.63 1.69 5.89 1.34 8.87 1.42 11.33-0.22 22.65-0.42 33.97-0.55 2.41 0.3 3.87-1.54 4.72-3.53 0.19 0.35 0.55 1.05 0.73 1.4-0.9 6.48 3.22 12.06 4.92 18.06 8.04 25.19 15.82 50.49 21.72 76.28 2.69 9.31 4.32 18.86 6.69 28.24 1.82 11.63 4.83 23.04 6.65 34.67 1.83 8.96 3.08 18.02 4.92 26.98 3.3 24.04 7.46 47.96 10.15 72.09 6.41 50.47 10.77 101.17 15.93 151.78 3.79 28.02 4.91 56.31 8.63 84.34 0.76 7.96 1.68 15.91 2.44 23.88 0.4 10.94 1.84 21.79 2.98 32.66 1.77 15.8 2.71 31.67 4.44 47.48 0.86 11.35 3.0099 22.57 3.45 33.96 2.28 25.32 4.94 50.61 7.21 75.93 0.14 8.41 1.84 16.69 2.12 25.09 0.23 10.69 1.62 21.31 2.44 31.97 0.49 12.8 2.17 25.53 2.4 38.34 1.89 14.46 2.1 29.07 3.35 43.59 0.6 6.28 0.26 12.61 0.7 18.91 1.16 11.34 0.5 22.76 0.64 34.15 0.4 9.6799-1.01 19.29-1.75 28.92-2.7401 23.82-7.61 47.97-19.41 69.11-13.05 24.18-33.13 43.6-54.61 60.33-18.43 13.35-37.35 26.24-57.87 36.18-13.91 5.5299-28.37 10.08-43.3 11.7-21.57 1.8101-43.74 0.11-64.19-7.3199-33.04-11.03-62.68-31.39-85.62-57.5-13.78-15.1-25.44-32.19-34.01-50.76-8.53-17.68-14.58-36.44-19.87-55.31-2.78-12.87-7.29-25.35-8.94-38.44-0.41-6.2301-2.23-12.23-3-18.4-1.44-18.5-4.77-36.86-4.95-55.46-0.62-12.02-1.79-24.02-1.84-36.05-0.51-40.36-0.28-80.72 0.44-121.07 0.32-12-0.47-24.04 0.93-35.98 0.19-23.66 1.86-47.29 2.69-70.93 0.95-8.98 1.06-18.01 1.81-27 0.3-15.06 2.8-29.97 2.71-45.04 1.32-10.98 1.41-22.1 3.39-32.99 1-19.01 3.92-37.86 4.83-56.86 0.91-6.13 1.55-12.29 2.09-18.46 1.5-9.85 2.73-19.74 3.54-29.67 4.56-37.04 9.03-74.11 14.71-110.99 1.1-8.05 1.71-16.18 3.53-24.11 7.7-53.27 18.73-105.95 29.88-158.59 3.71-14.47 6.71-29.16 11.45-43.36 1.28-4.06 1.57-8.49 3.88-12.17 0.21 1.64 0.5 3.28 0.76 4.93 7.19-0.01 14.36-0.72 21.56-0.47 5.83-0.19 11.79 0.71 17.53-0.67 6.06-2.0902 11.68-5.2602 17.77-7.2902z" fill="#F8F2DA" stroke="#F8F2DA"/>
</g>
<g stroke-width=".0938">
	<path d="m1333.4 129.37c14.55-9.29 32.37-14.47 49.61-11.19 19.09 3.53 35.24 15.77 48.1 29.8 25.27 27.19 40.24 62.01 51 97.1 24.99 82.26 43.57 166.39 57.62 251.18 24.97 151.87 34.85 305.96 34.34 459.78-0.6499 51.35-0.7799 102.83-5.89 153.98-4.5699 43.98-13.17 88.11-31.52 128.58-14.27 31.47-34.86 60.43-61.84 82.25 23.41-5.6 47.07-10.63 71.13-12.33 11.68-0.62 23.53-0.79 35.04 1.62 8.54 1.76 17.21 5.11 23.13 11.78 5.22 5.6499 7.15 13.55 7.12 21.08-0.21 8.75-1.97 17.8-7.11 25.07-6.02 8.9501-16.1 14.2-26.23 17.11-20.13 5.48-41.26 4.4299-61.87 3.3099-27.67-2.02-55.44-1-83.12-2.75-6.03-0.09-12.01-0.99-18.03-1 35.3 18.2 70.8 36.05 106.14 54.19 22.52 11.34 44.88 23 67.45 34.25-2.85 6.0199-6.12 11.85-8.9199 17.9-7.26-2.5599-13.77-6.85-20.75-10.06-70.69-36.07-141.45-72.02-212.12-108.14-85.02 27.64-170.07 55.22-255.08 82.89-2.14-6.41-4.15-12.86-6.3199-19.26 51.23-16.88 102.59-33.39 153.88-50.09-14.04 0.22-28.07 0.73-42.12 0.85-23.68 0.01-47.34 3.6899-71.02 1.37-12.27-1.17-24.93-3.54-35.44-10.32-8.14-5.13-14.13-13.5-16.28-22.87-1.8201-8.0499-2.3401-16.68 0.3799-24.58 2.5901-7.71 8.9501-13.67 16.28-16.91 9.4-4.2 19.82-5.45 30.03-5.7799 21.87-0.52 43.59 3.0499 64.95 7.3899 13.72 2.9401 27.39 6.1801 40.9 10-13.3-8.97-26.6-18.11-38.05-29.42-15.01-14.56-27.41-31.82-36.31-50.75-17.59-37.09-21.96-78.82-21.71-119.41 0.77-49.72 7.6599-99.05 12.45-148.47 10.47-102.14 20.21-204.35 30.72-306.48 5.0601-48.33 10.01-96.67 15.91-144.9 10.88-88.29 25.76-176.67 54.55-261.09 5.9-16.86 11.77-33.8 19.71-49.84 9.04-18.51 19.86-36.21 32.82-52.25 10.49-12.82 22.35-24.78 36.47-33.59m23.39 4.66c-18.24 8.46-33.36 22.3-46.36 37.42-5.7599 5.42-9.6499 12.36-14.41 18.59-5.62 8.16-10.79 16.63-15.71 25.23-4.2999 8.04-9.0599 15.9-12.13 24.52-1.62 1.91-3.33 4-3.61 6.59-0.24 2.44 0.1001 4.99-1.01 7.27-4.97 12.21-8.5399 24.9-12.51 37.45-2.4901 6.86-3.7101 14.08-5.9601 21.01-5.88 20.83-10.19 42.05-15.7 62.98-1.42 7.27-2.09 14.67-3.72 21.92-2.16 9.69-3.2001 19.59-5.3201 29.29-1.21 6.22-1.71 12.56-3.0699 18.76-1.3 5.87-1.14 11.95-2.5601 17.8-2.1799 8.56-2.58 17.42-3.62 26.17-2.9299 14.52-2.8199 29.48-5.59 44.04-3.11 24.93-4.9501 49.98-7.55 74.97-3.38 25.24-4.33 50.75-7.6699 75.99-2.77 24.93-4.24 49.99-7.3301 74.89-1.88 12.28-2.62 24.7-3.7 37.07-2.02 22.64-4.25 45.27-6.65 67.88-2.34 27.7-5.1899 55.34-7.48 83.04-1.1801 10.13-1.3 20.36-2.6801 30.47-3.6699 44.83-6.9099 89.69-9.63 134.58-0.2899 15.68-0.4199 31.38 0.13 47.06 0.2001 9.38 1.9 18.61 2.9301 27.92 3 15.93 6.47 31.95 13.25 46.76 4.52 8.9501 8.97 18.05 15.28 25.92 10.38 14.39 23.4 26.59 36.83 38.1 7.76 5.5801 15 11.87 23.07 17.02 8.2301 5.9301 17.15 10.78 25.65 16.3 7.6 5.01 16.23 8.02 24.55 11.57 29.05 11.03 61.67 12.13 91.5 3.53 11.87-3.33 23.6-7.61 34.34-13.71 7.5701-3.37 14.66-7.75 21.34-12.64 29.24-20.27 53.31-47.9 69.49-79.58 2.26-3.62 4.03-7.52 5.4801-11.53 4.39-11.48 9.51-22.73 12.46-34.71 3.96-11.48 6.4-23.39 9.51-35.11 0.91-4.02 1.25-8.13 2.0699-12.16 4.36-20.34 6.6001-41.04 8.3101-61.75 4.8099-49.16 2.9-98.62 3.0599-147.92-1.2999-24.65-0.1899-49.38-1.73-74.02-3.64-110.75-14.37-221.16-28.49-331.04-2.0499-12.94-2.98-26.03-5.0699-38.97-0.9501-5.24-0.9701-10.62-2.1801-15.81-2.88-11.55-3.0599-23.54-5.5699-35.16-1.5701-13.12-4.86-25.95-6.49-39.05-1.92-7.42-2.4501-15.1-4.14-22.57-1.35-8.23-4.03-16.17-5.35-24.41-1.26-8.44-3.89-16.58-5.1101-25.02-2.12-12.79-4.84-25.48-8.0699-38.03-3.05-15.23-8.03-29.95-12.36-44.85-8.16-21.2-14.94-42.91-23.79-63.84-7.1799-15.99-16.68-31.46-30.66-42.39-8.2-6.15-17.61-11.76-28.13-12.06-9.5898-1.18-19.15 1.03-28.14 4.22m-262.81 1200.9c-4.51 3.27-3.5599 9.8201-1.1799 14.13 3.98 6.89 11.79 10.26 19.13 12.3 18.9 5.1 38.66 4.1801 58.03 4.15 14.02 0.49 28.04 1.2 42.07 1.0499 8.74-0.1499 17.58-0.2699 26.16-2.1799 3.1101-0.7001 6.5601-1.89 7.9301-5.05-24.22-6.9399-48.44-13.95-73-19.59-19.48-4.35-39.16-8.48-59.17-9.0601-6.7601 0.1602-14.25 0.1402-19.97 4.2501m441.12-0.2199c-24.64 4.5901-48.91 10.92-73.01 17.73-8.11 2.4701-16.43 4.3101-24.36 7.29 1.39 1.4401 2.8101 3.0601 4.84 3.65 5.92 2.04 12.23 2.48 18.44 2.9 16.69 0.71 33.39 0.0399 50.07-0.7001 13.4-0.26 26.85 0.55 40.24-0.75 9.8201-0.89 19.82-2.2999 28.88-6.4199 5.0901-2.3401 10.07-6.01 11.99-11.49 1.3101-3.55 1.77-8.1101-1.08-11.04-4.21-4.1801-10.54-4.62-16.12-5.09-13.41-0.52-26.72 1.72-39.89 3.92z" fill="#fff" stroke="#fff"/>
	<path d="m1362.7 1439.6c2.6599-5.5599 9.7999-6.22 15.22-5.59 6.6799 1.5 13.07 5.72 16.07 12.06 3.1801 6.11 2.64 13.3 1.4401 19.86-0.87 4.63-3.2001 8.8301-6.36 12.3 5.5599-4.48 9.37-10.92 15.69-14.48 3.27-2.01 7.86-1.96 10.87 0.5599 4.8 4.05 7.15 10.54 6.85 16.74-0.6699 8.1499-4.7999 16.22-11.85 20.62-5.77 3.9199-13.06 3.95-19.76 3.62 6.49 1.45 13.4 2.86 18.69 7.1699 3.6699 2.89 3.97 8.22 2.27 12.29-2.79 7.35-10.21 12.29-17.89 13.04-9.98 1.0299-19.82-4.77-25.08-13.07-0.26-1.26-0.8199-2.38-1.3999-3.46-0.16 1.47-0.1801 2.96-0.2101 4.48l1.1801-0.62c1.2 4.63 2.02 9.5 1.22 14.28-1.05 4.9-5.29 9.5599-10.6 9.38-8.5601-0.1001-17.38-4.62-21.4-12.38-5.23-9.14-3.6-20.96 2.47-29.28-4.5299 4.49-9.15 9.42-15.33 11.56-4.9401 1.91-10.61-1.08-12.82-5.6399-4.9199-8.62-3.11-20.24 3.8101-27.26 6.1-6.5901 15.45-9.4501 24.27-8.49-6.99-1.7101-14.76-3.1001-19.81-8.7001-3.6699-3.85-2.7999-10.12 0.05-14.19 5.59-8.8401 17.51-11.43 27.16-9.04 7.48 1.88 13.35 7.84 16.4 14.77-1.1798-6.7397-2.6198-13.73-1.1498-20.53m0.8999 37.34c-5.85 0.9401-10.93 5.6901-11.99 11.55-1.9199 8.29 4.8501 17.2 13.38 17.36 8.23 0.8201 15.95-6.64 15.42-14.88 0.1201-8.5499-8.4999-15.54-16.81-14.03z" fill="#fff" stroke="#fff"/>
	<path d="m1180.1 1501c1.0901-5.54 6.7201-8.63 11.92-9.3201 5.92-0.63 12.52-1.0299 17.55 2.74 8.73 3.3 14.94 11.51 17.14 20.42 1.4701 5.6 0.8401 11.44 0.3501 17.13-0.8401 8.35-4.53 16.43-10.81 22.09 8.5701-5.97 13.89-15.65 23.07-20.83 4.6699-2.99 11.32-2.8 15.57 0.88 8.21 7.21 11.34 19.47 8.13 29.84-2.38 10.82-9.92 20.53-20.25 24.77-8.17 3.42-17.26 2.98-25.82 1.5699 8.2001 2.05 16.63 3.8 24.23 7.6801 4.22 2.12 8.2699 5.5601 9.33 10.39 1 6.0699-1.45 12.23-5.12 16.99-6.22 7.89-16.47 12.1-26.42 11.63-13.52-1.27-25.78-10.13-31.83-22.2 2.3199 7.7799 4.87 15.97 3.1801 24.16-1.3501 5.4401-5.1001 10.8-10.64 12.52-7.03 2.05-14.27-0.62-20.62-3.55-6.76-2.95-11.69-9.0099-14.81-15.53-5.6799-12.45-3.37-27.65 4.79-38.46-6.67 6.12-13.05 13.31-21.9 16.21-6.28 2.0399-13.36-1.03-16.7-6.5801-8.15-12.33-5.5601-29.99 4.96-40.13 8.22-8.5699 20.36-12.1 31.99-11.83-8.71-1.99-18.05-3.91-24.79-10.23-4.5599-3.61-5.9099-10.18-4.15-15.55 2.14-6.86 7.55-12.38 13.76-15.76 10.25-4.6899 22.68-5.4399 32.97-0.45 8.0699 3.96 14.02 11.34 17.55 19.49-2.1699-9.1698-4.0199-18.67-2.6299-28.09m0.51 50.86c-7.4399 1.59-13.72 7.66-15.39 15.1-1.85 7.26 0.78 15.42 6.54 20.22 5.1801 4.5701 12.81 6.11 19.38 3.9601 6.12-1.89 11.19-6.8201 13.14-12.94 3.09-8.45-0.55-18.6-8.05-23.44-4.5301-3.1002-10.31-3.9901-15.62-2.9001z" fill="#fff" stroke="#fff"/>
	<path d="m1419.2 1601c1.64-5.3101 8.0699-6.52 12.93-6.34 4.17-0.2301 7.86 1.98 11.35 4 6.5099 4.22 9.97 12.21 9.4199 19.86 0.12 7.5-1.9299 15.39-7.5599 20.67 5.9099-4.38 9.74-11.11 16.26-14.7 4.0199-2.46 9.73-1.42 12.54 2.42 8.5801 9.8099 5.23 25.93-4.4099 33.78-6.42 5.5601-15.66 6.6001-23.7 4.6801 6.52 2.22 13.73 3.0499 19.41 7.25 3.25 2.26 4.92 6.49 3.7999 10.36-2.08 9.86-12.43 16.31-22.18 15.77-9.71-0.74-18.67-7.0701-22.93-15.78 1.51 5.13 3.17 10.45 2.4701 15.88-0.7001 4.64-3.8 9.45-8.64 10.5-5.74 1.08-11.41-1.34-16.34-4.03-6.87-4.6599-10.86-13.07-10.37-21.33-0.08-5.42 2.0901-10.51 4.8201-15.07-3.9 3.4801-7.64 7.29-12.34 9.7101-4.2401 2.1799-10.04 1.72-13.21-2.0801-4.02-4.7899-5.38-11.49-4.35-17.56 1.3-7.8201 6.8-14.61 13.89-18.01 4.9399-2.5699 10.58-3.16 16.07-3.49-7.01-0.89-14.49-2.85-19.39-8.26-3.6699-4.23-2.4399-10.72 0.77-14.83 6.25-8.76 18.73-10.86 28.49-7.65 6.78 2.3099 11.7 8.13 14.8 14.38-1.5397-6.5499-2.8997-13.44-1.5997-20.13m1.37 36.73c-6.24 0.79-11.56 5.9301-12.42 12.18-1.6899 8.6399 6.12 17.48 14.94 16.73 9.0299 0.13 16.23-9.75 13.48-18.32-1.6901-6.94-9.0101-11.62-16-10.59z" fill="#fff" stroke="#fff"/>
	<path d="m1348.5 74.83c18.94-2.36 38.6 0.44 55.77 8.95 14.01 6.82 26.28 16.75 37.14 27.84 12.77 13.09 23.57 27.89 34.38 42.59 23.67 32.66 44.82 67.2 62.43 103.51 29.87 61.14 49.2 127.25 58.19 194.66 12.33 99.46 15.14 199.74 22.99 299.59 3.51 48.52 9.0699 96.87 15.64 145.07 13.13 99.69 27.67 199.38 32.47 299.91 4.41 92.39 0.48 185.99-21.71 276.11-9.4501 38.15-21.68 75.74-38.5 111.31-25.45 53.54-59.87 103.13-103.01 143.95-23.87 22.45-50.5 42.16-79.7 57.14-25.85 13.26-53.74 22.78-82.53 27-39.34 6.05-79.98 1.7001-117.58-11.08-34.93-11.63-67.01-31-94.8-55.02-41.89-36.4-74.76-83.67-92.27-136.48-8.5601-25.71-11.52-52.92-11.95-79.9-0.5499-25.66 1.0801-51.29 1.3-76.94 0.34-54.28 5.12-108.53 14.35-162.03 7.34-41.47 16.13-82.67 24.03-124.04 9.25-47.58 18.13-95.25 25.59-143.15 3.64-22.75 6.58-45.6 9.9301-68.39 5.76-38.88 11.53-77.76 17.66-116.59 0.9-6.28 2.4701-12.47 2.7101-18.83 2.1499-83.34 4.35-166.67 6.5699-250 0.52-28.02 1.8101-56.01 1.8-84.03 0.9299-71.15 10.37-142.71 33.37-210.25 5.51-16.66 12.51-32.75 19.01-49.03 7.6-18.17 16.56-35.88 27.95-51.99 6.61-8.79 12.5-18.1 19.37-26.71 9.13-13.52 18.32-27.37 31.08-37.79 14.83-12.26 32.74-20.03 50.84-26.1 12.25-3.9501 24.65-7.7401 37.48-9.2801m-15.1 54.54c-14.12 8.81-25.98 20.77-36.47 33.59-12.96 16.04-23.78 33.74-32.82 52.25-7.9399 16.04-13.81 32.98-19.71 49.84-28.79 84.42-43.67 172.8-54.55 261.09-5.9 48.23-10.85 96.57-15.91 144.9-10.51 102.13-20.25 204.34-30.72 306.48-4.79 49.42-11.68 98.75-12.45 148.47-0.25 40.59 4.12 82.32 21.71 119.41 8.9 18.93 21.3 36.19 36.31 50.75 11.45 11.31 24.75 20.45 38.05 29.42-13.51-3.8199-27.18-7.0599-40.9-10-21.36-4.34-43.08-7.9099-64.95-7.3899-10.21 0.33-20.63 1.58-30.03 5.7799-7.33 3.24-13.69 9.2001-16.28 16.91-2.72 7.9-2.2 16.53-0.3799 24.58 2.1499 9.37 8.1399 17.74 16.28 22.87 10.51 6.78 23.17 9.15 35.44 10.32 23.68 2.3199 47.34-1.36 71.02-1.37 14.05-0.12 28.08-0.63 42.12-0.85-51.29 16.7-102.65 33.21-153.88 50.09 2.1699 6.4 4.1799 12.85 6.3199 19.26 85.01-27.67 170.06-55.25 255.08-82.89 70.67 36.12 141.43 72.07 212.12 108.14 6.98 3.21 13.49 7.5 20.75 10.06 2.7999-6.0499 6.0699-11.88 8.9199-17.9-22.57-11.25-44.93-22.91-67.45-34.25-35.34-18.14-70.84-35.99-106.14-54.19 6.02 0.01 12 0.91 18.03 1 27.68 1.75 55.45 0.73 83.12 2.75 20.61 1.12 41.74 2.17 61.87-3.3099 10.13-2.91 20.21-8.16 26.23-17.11 5.14-7.2699 6.9-16.32 7.11-25.07 0.03-7.53-1.9-15.43-7.12-21.08-5.92-6.67-14.59-10.02-23.13-11.78-11.51-2.41-23.36-2.24-35.04-1.62-24.06 1.7-47.72 6.73-71.13 12.33 26.98-21.82 47.57-50.78 61.84-82.25 18.35-40.47 26.95-84.6 31.52-128.58 5.1101-51.15 5.2401-102.63 5.89-153.98 0.51-153.82-9.37-307.91-34.34-459.78-14.05-84.79-32.63-168.92-57.62-251.18-10.76-35.09-25.73-69.91-51-97.1-12.86-14.03-29.01-26.27-48.1-29.8-17.24-3.28-35.06 1.9-49.61 11.19m29.26 1310.2c-1.4701 6.8-0.03 13.79 1.1499 20.53-3.0499-6.9301-8.9199-12.89-16.4-14.77-9.65-2.39-21.57 0.2-27.16 9.04-2.85 4.0699-3.72 10.34-0.05 14.19 5.05 5.6 12.82 6.99 19.81 8.7001-8.8201-0.9601-18.17 1.8999-24.27 8.49-6.92 7.02-8.73 18.64-3.8101 27.26 2.2101 4.5599 7.88 7.5499 12.82 5.6399 6.1799-2.1399 10.8-7.0699 15.33-11.56-6.0699 8.3199-7.7 20.14-2.47 29.28 4.02 7.76 12.84 12.28 21.4 12.38 5.3099 0.1799 9.5499-4.48 10.6-9.38 0.8-4.78-0.02-9.65-1.22-14.28l-1.1801 0.62c0.03-1.52 0.05-3.01 0.2101-4.48 0.58 1.08 1.1399 2.2 1.3999 3.46 5.26 8.3 15.1 14.1 25.08 13.07 7.6799-0.75 15.1-5.6901 17.89-13.04 1.7-4.0701 1.3999-9.4-2.27-12.29-5.29-4.3099-12.2-5.72-18.69-7.1699 6.7001 0.33 13.99 0.2999 19.76-3.62 7.05-4.4 11.18-12.47 11.85-20.62 0.3-6.2001-2.0499-12.69-6.85-16.74-3.01-2.5199-7.6-2.5699-10.87-0.5599-6.3199 3.5599-10.13 10-15.69 14.48 3.1599-3.47 5.49-7.67 6.36-12.3 1.2-6.5599 1.74-13.75-1.4401-19.86-3-6.34-9.39-10.56-16.07-12.06-5.4201-0.6303-12.56 0.0297-15.22 5.5897m-182.58 61.42c-1.39 9.4199 0.4601 18.92 2.63 28.09-3.53-8.15-9.48-15.53-17.55-19.49-10.29-4.99-22.72-4.24-32.97 0.45-6.21 3.38-11.62 8.9-13.76 15.76-1.7599 5.37-0.4099 11.94 4.15 15.55 6.74 6.3199 16.08 8.24 24.79 10.23-11.63-0.27-23.77 3.26-31.99 11.83-10.52 10.14-13.11 27.8-4.96 40.13 3.34 5.55 10.42 8.62 16.7 6.5801 8.85-2.9 15.23-10.09 21.9-16.21-8.16 10.81-10.47 26.01-4.79 38.46 3.12 6.52 8.05 12.58 14.81 15.53 6.35 2.9301 13.59 5.6001 20.62 3.55 5.5399-1.72 9.2899-7.08 10.64-12.52 1.6899-8.1899-0.8601-16.38-3.1801-24.16 6.05 12.07 18.31 20.93 31.83 22.2 9.9501 0.47 20.2-3.74 26.42-11.63 3.67-4.76 6.12-10.92 5.12-16.99-1.0601-4.83-5.11-8.27-9.33-10.39-7.6001-3.88-16.03-5.63-24.23-7.6801 8.5601 1.41 17.65 1.8501 25.82-1.5699 10.33-4.24 17.87-13.95 20.25-24.77 3.21-10.37 0.08-22.63-8.13-29.84-4.25-3.6801-10.9-3.87-15.57-0.88-9.1801 5.1799-14.5 14.86-23.07 20.83 6.28-5.6599 9.97-13.74 10.81-22.09 0.49-5.6899 1.12-11.53-0.3501-17.13-2.2-8.91-8.4099-17.12-17.14-20.42-5.03-3.7699-11.63-3.37-17.55-2.74-5.2 0.6899-10.83 3.7799-11.92 9.3199m239.06 99.99c-1.3 6.6899 0.0599 13.58 1.6 20.13-3.1-6.25-8.02-12.07-14.8-14.38-9.76-3.21-22.24-1.11-28.49 7.65-3.21 4.11-4.4399 10.6-0.77 14.83 4.9 5.41 12.38 7.37 19.39 8.26-5.49 0.33-11.13 0.92-16.07 3.49-7.09 3.4-12.59 10.19-13.89 18.01-1.03 6.0699 0.33 12.77 4.35 17.56 3.17 3.8 8.97 4.26 13.21 2.0801 4.7-2.42 8.4399-6.23 12.34-9.7101-2.73 4.5601-4.9 9.65-4.8201 15.07-0.49 8.26 3.5 16.67 10.37 21.33 4.9301 2.6901 10.6 5.11 16.34 4.03 4.84-1.05 7.9399-5.86 8.64-10.5 0.7-5.4301-0.9601-10.75-2.4701-15.88 4.26 8.71 13.22 15.04 22.93 15.78 9.75 0.54 20.1-5.91 22.18-15.77 1.1201-3.87-0.5499-8.1-3.7999-10.36-5.6801-4.2001-12.89-5.03-19.41-7.25 8.04 1.92 17.28 0.88 23.7-4.6801 9.6399-7.85 12.99-23.97 4.4099-33.78-2.8099-3.8401-8.52-4.88-12.54-2.42-6.52 3.59-10.35 10.32-16.26 14.7 5.63-5.2799 7.6799-13.17 7.5599-20.67 0.55-7.65-2.91-15.64-9.4199-19.86-3.4901-2.02-7.1801-4.2301-11.35-4-4.8602-0.1801-11.29 1.0299-12.93 6.3399z" fill="#C2272D" stroke="#C2272D"/>
	<path d="m1094 1334.9c5.72-4.11 13.21-4.09 19.97-4.25 20.01 0.5801 39.69 4.7101 59.17 9.0601 24.56 5.64 48.78 12.65 73 19.59-1.37 3.16-4.8199 4.35-7.9301 5.05-8.58 1.91-17.42 2.03-26.16 2.1799-14.03 0.15-28.05-0.5599-42.07-1.0499-19.37 0.03-39.13 0.95-58.03-4.15-7.34-2.04-15.15-5.41-19.13-12.3-2.3799-4.31-3.33-10.86 1.18-14.13z" fill="#C2272D" stroke="#C2272D"/>
	<path d="m1535.1 1334.7c13.17-2.2 26.48-4.4399 39.89-3.9199 5.58 0.47 11.91 0.9099 16.12 5.09 2.85 2.9299 2.39 7.49 1.08 11.04-1.9199 5.48-6.8999 9.1499-11.99 11.49-9.0599 4.12-19.06 5.5299-28.88 6.4199-13.39 1.3-26.84 0.49-40.24 0.75-16.68 0.74-33.38 1.41-50.07 0.7001-6.21-0.42-12.52-0.86-18.44-2.9-2.0299-0.59-3.45-2.21-4.84-3.65 7.9301-2.98 16.25-4.8199 24.36-7.29 24.1-6.8101 48.37-13.14 73.01-17.73z" fill="#C2272D" stroke="#C2272D"/>
	<path d="m1363.6 1477c8.3101-1.51 16.93 5.4801 16.81 14.03 0.53 8.24-7.1901 15.7-15.42 14.88-8.5299-0.16-15.3-9.0699-13.38-17.36 1.06-5.86 6.14-10.61 11.99-11.55z" fill="#C2272D" stroke="#C2272D"/>
	<path d="m1180.6 1551.9c5.3101-1.09 11.09-0.2001 15.62 2.9 7.5 4.84 11.14 14.99 8.05 23.44-1.9501 6.12-7.02 11.05-13.14 12.94-6.5699 2.1499-14.2 0.61-19.38-3.9601-5.76-4.7999-8.39-12.96-6.54-20.22 1.67-7.4399 7.95-13.51 15.39-15.1z" fill="#C2272D" stroke="#C2272D"/>
	<path d="m1420.5 1637.8c6.99-1.03 14.31 3.65 16 10.59 2.75 8.5701-4.4501 18.45-13.48 18.32-8.8201 0.75-16.63-8.0901-14.94-16.73 0.8601-6.25 6.1801-11.39 12.42-12.18z" fill="#C2272D" stroke="#C2272D"/>
	<path d="m1356.8 134.03c8.99-3.19 18.55-5.4 28.14-4.22 10.52 0.3 19.93 5.91 28.13 12.06 13.98 10.93 23.48 26.4 30.66 42.39 8.85 20.93 15.63 42.64 23.79 63.84-0.41 0.4-1.24 1.2-1.66 1.6-12.3-0.11-24.61 0.01-36.9 0-3.4399 0.15-6.1599-2.15-9.1-3.52-9.8099-4.7-20.31-7.77-30.87-10.24-11.92-1.91-24.03-3.96-36.11-2.37-8.28 1.3-16.73 2.33-24.48 5.71-5.14 1.86-9.64 4.99-14.19 7.93-4.7799 3.21-10.82 1.79-16.2 1.95-10.9-0.64-21.88 0.37-32.7-1.17 1.0499-2.7 2-5.44 2.8799-8.2 3.0701-8.62 7.8301-16.48 12.13-24.52 4.92-8.6 10.09-17.07 15.71-25.23 4.76-6.23 8.65-13.17 14.41-18.59 13-15.12 28.12-28.96 46.36-37.42z" fill="#F1E9BB" stroke="#F1E9BB"/>
	<path d="m1352.9 233.57c12.08-1.59 24.19 0.46 36.11 2.37 10.56 2.47 21.06 5.54 30.87 10.24 2.9401 1.37 5.66 3.67 9.1 3.52 12.29 0.01 24.6-0.11 36.9 0 0.42-0.4 1.25-1.2 1.66-1.6 4.33 14.9 9.3099 29.62 12.36 44.85 3.23 12.55 5.95 25.24 8.0699 38.03 1.2201 8.44 3.8501 16.58 5.1101 25.02 1.3199 8.24 4 16.18 5.35 24.41 1.6899 7.47 2.22 15.15 4.14 22.57 1.63 13.1 4.9199 25.93 6.49 39.05 2.51 11.62 2.6899 23.61 5.5699 35.16 1.21 5.19 1.23 10.57 2.1801 15.81 2.09 12.94 3.02 26.03 5.0699 38.97 14.12 109.88 24.85 220.29 28.49 331.04 1.54 24.64 0.4301 49.37 1.73 74.02-0.1599 49.3 1.75 98.76-3.0599 147.92-1.71 20.71-3.9501 41.41-8.3101 61.75-0.8199 4.03-1.1599 8.14-2.0699 12.16-3.11 11.72-5.55 23.63-9.51 35.11-2.95 11.98-8.0699 23.23-12.46 34.71-1.4501 4.0099-3.2201 7.9099-5.4801 11.53-16.18 31.68-40.25 59.31-69.49 79.58-6.6799 4.89-13.77 9.27-21.34 12.64-10.74 6.1-22.47 10.38-34.34 13.71-29.83 8.6-62.45 7.5-91.5-3.53-8.3201-3.5499-16.95-6.5599-24.55-11.57-8.5-5.52-17.42-10.37-25.65-16.3-8.0699-5.15-15.31-11.44-23.07-17.02-13.43-11.51-26.45-23.71-36.83-38.1-6.3101-7.87-10.76-16.97-15.28-25.92-6.78-14.81-10.25-30.83-13.25-46.76-1.03-9.3099-2.73-18.54-2.9301-27.92-0.5499-15.68-0.4199-31.38-0.13-47.06 2.7201-44.89 5.9601-89.75 9.63-134.58 1.38-10.11 1.5-20.34 2.6801-30.47 2.29-27.7 5.14-55.34 7.48-83.04 2.4-22.61 4.63-45.24 6.65-67.88 1.08-12.37 1.8199-24.79 3.7-37.07 3.0901-24.9 4.5601-49.96 7.3301-74.89 3.34-25.24 4.2899-50.75 7.6699-75.99 2.6-24.99 4.4401-50.04 7.55-74.97 2.77-14.56 2.66-29.52 5.59-44.04 1.04-8.75 1.4401-17.61 3.62-26.17 1.42-5.85 1.26-11.93 2.5601-17.8 1.36-6.2 1.86-12.54 3.0699-18.76 2.12-9.7 3.16-19.6 5.3201-29.29 1.63-7.25 2.2999-14.65 3.72-21.92 5.51-20.93 9.8199-42.15 15.7-62.98 2.25-6.93 3.47-14.15 5.9601-21.01 3.97-12.55 7.5399-25.24 12.51-37.45 1.1101-2.28 0.77-4.83 1.01-7.27 0.28-2.59 1.99-4.68 3.61-6.59-0.8799 2.76-1.83 5.5-2.8799 8.2 10.82 1.54 21.8 0.53 32.7 1.17 5.38-0.16 11.42 1.26 16.2-1.95 4.55-2.94 9.05-6.07 14.19-7.93 7.7497-3.38 16.2-4.41 24.48-5.71z" fill="#F8F2DA" stroke="#F8F2DA"/>
</g>
</svg>