<?xml version="1.0" encoding="UTF-8"?>
<svg viewBox="0 0 1052.362179 744.09447" xmlns="http://www.w3.org/2000/svg" xmlns:xlink="http://www.w3.org/1999/xlink">
 <defs>
  <linearGradient id="b">
   <stop offset="0"/>
   <stop stop-opacity="0" offset="1"/>
  </linearGradient>
  <linearGradient id="c">
   <stop stop-color="#fff" offset="0"/>
   <stop stop-color="#fff" stop-opacity="0" offset="1"/>
  </linearGradient>
  <linearGradient id="l" x1="172.4" x2="235.28" gradientUnits="userSpaceOnUse">
   <stop offset="0"/>
   <stop stop-opacity="0" offset="1"/>
  </linearGradient>
  <linearGradient id="f" x1="698.3" x2="704.81" y1="209.07" y2="223.32" gradientUnits="userSpaceOnUse" xlink:href="#b"/>
  <linearGradient id="e" x1="710.11" x2="705.63" y1="226.58" y2="217.62" gradientUnits="userSpaceOnUse" xlink:href="#c"/>
  <linearGradient id="q" x1="228.45" x2="523.58" gradientUnits="userSpaceOnUse" xlink:href="#b"/>
  <linearGradient id="p" x1="733.6" x2="527.46" y1="362.9" y2="446.97" gradientUnits="userSpaceOnUse" xlink:href="#c"/>
  <linearGradient id="o" x1="833.8" x2="754.33" y1="490.73" y2="627.78" gradientUnits="userSpaceOnUse" xlink:href="#c"/>
  <linearGradient id="n" x1="556.25" x2="610.38" y1="268.46" y2="244.28" gradientUnits="userSpaceOnUse" xlink:href="#c"/>
  <linearGradient id="m" x1="586.19" x2="517.09" y1="353.68" y2="372.11" gradientUnits="userSpaceOnUse" xlink:href="#c"/>
  <linearGradient id="k" x1="208.39" x2="438.84" gradientUnits="userSpaceOnUse" xlink:href="#b"/>
  <linearGradient id="j" x1="416.9" x2="450.3" y1="537.95" y2="503.4" gradientUnits="userSpaceOnUse" xlink:href="#b"/>
  <linearGradient id="i" x1="670.26" x2="676.02" y1="623.17" y2="604.74" gradientUnits="userSpaceOnUse" xlink:href="#b"/>
  <linearGradient id="h" x1="760.09" x2="771.61" y1="685.36" y2="608.2" gradientUnits="userSpaceOnUse" xlink:href="#b"/>
  <linearGradient id="d" x1="264.38" x2="319.66" y1="469.75" y2="407.56" gradientUnits="userSpaceOnUse" xlink:href="#b"/>
  <linearGradient id="a" x1="262.58" x2="317.86" y1="472.3" y2="410.11" gradientUnits="userSpaceOnUse" xlink:href="#b"/>
  <radialGradient id="g" cx="528.61" cy="618.56" r="431.87" gradientTransform="matrix(1 0 0 .26933 0 451.96)" gradientUnits="userSpaceOnUse" xlink:href="#b"/>
 </defs>
 <path d="m960.48 618.56a431.87 116.32 0 1 1 -863.74 0 431.87 116.32 0 1 1 863.74 0z" fill="url(#g)"/>
 <path d="m264.32 436.01 44.876-19.503-6.6015-41.165-35.424 13.029z"/>
 <path d="m169.69 293.65c28.174 63.37 105.14 87.209 146.78 134.27 0.83899 0.94823 1.6704 1.8993 2.4974 2.8503 16 18.399 29.927 37.136 40.725 56.187 14.715 25.962 27.904 50.31 44.513 70.601 1.032 1.2608 0.9387 3.3608 2.239 4.3665 47.189 36.5 119.64 59.38 196.27 79.47 43.737 11.467 89.09 22.981 132.43 26.542 73.724-1.6374 131.25-10.216 119.77-48.369l-467.57-401.93c-72.554 25.336-208.76-76.637-217.66 76.009z" fill="#2b1100"/>
 <path d="m170.29 294.86c28.174 63.37 105.14 87.209 146.78 134.27 0.83899 0.94823 1.6704 1.8993 2.4974 2.8503 16 18.399 29.927 37.136 40.725 56.187 14.715 25.962 27.904 50.31 44.513 70.601 1.032 1.2608 0.9387 3.3608 2.239 4.3665 47.189 36.5 119.64 59.38 196.27 79.47 43.737 11.467 89.09 22.981 132.43 26.542 73.724-1.6374 131.25-10.216 119.77-48.369l-467.57-401.93c-72.554 25.336-208.76-76.637-217.66 76.009z"/>
 <path d="m171.6 273.07c28.174 63.37 105.14 87.209 146.78 134.27 0.83899 0.94823 1.6704 1.8993 2.4974 2.8503 16 18.399 29.927 37.136 40.725 56.187 14.715 25.962 27.904 50.31 44.513 70.601 1.0321 1.2608 0.93873 3.3608 2.239 4.3665 47.189 36.5 119.64 59.38 196.27 79.47 43.737 11.467 89.09 22.981 132.43 26.542 73.724-1.6374 131.25-10.216 119.77-48.369-21.343-61.925-72.59-106.22-117.57-162.27-149.49-186.29-153.05-213.23-209.5-293.79l-45.871-0.8194-260.94-72.154c-38.672 73.091-49.291 139.17-51.357 203.11z" fill="#2b1100"/>
 <path d="m228.32 63.467c-17.461 3.5716 41.481 118.54 65.647 122.06 0.70104 0.10199 1.4372-0.27509 2.0126 0.0192 43.694 22.348 234.65-44.339 234.65-44.339-66.035 9.3677-127.38-22.513-234.32-90.247-3.7976-2.4054-8.6009-2.8032-12.999-4.1889-16.785-5.1578-44.52-18.327-54.991 16.699z" fill="#502d16"/>
 <path d="m416.9 178.06c30.838 71.185 52.725 141.47 52.976 209.6 42.303 5.5219 82.649-2.6594 120.35-29.367-25.493-62.547-58.683-123.81-93.284-184.84-30.496-21.361-53.627 1.4696-80.04 4.6066z" fill="#520"/>
 <path d="m532.06 140.63 124.95 190.6-53.552 21.881c-23.797-61.613-56.051-123.23-96.739-184.84-13.624-30.057 14.277-20.895 25.336-27.64z" fill="#520"/>
 <path d="m165.68 292.56c28.174 63.37 105.14 87.209 146.78 134.27 0.83899 0.94823 1.6704 1.8993 2.4974 2.8503 16 18.399 29.927 37.136 40.725 56.187 14.715 25.962 27.904 50.31 44.513 70.601 1.032 1.2608 0.9387 3.3608 2.239 4.3665 47.189 36.5 119.64 59.38 196.27 79.47 43.737 11.467 89.09 22.981 132.43 26.542 73.724-1.6374 131.25-10.216 119.77-48.369l-467.57-401.93c-72.554 25.336-208.76-76.637-217.66 76.009z" fill="url(#h)"/>
 <path d="m310.26 374.38c6.6971-64.741 109.66 34.745 164.5 52.118 5.69 14.882 129.59-41.164 202.77-66.776 15.571 27.791 37.092 52.013 63.519 73.291-102.91 2.3486-175.86 51.948-222.32 143.32-52.962-13.013-94.187-35.213-116.37-71.628-27.273-44.762-56.646-90.134-92.097-130.33z" fill="#520"/>
 <path d="m213.36 121.94-4.8861 38.274c10.214 24.877 24.281 47.545 30.432 74.245 6.8045 29.533 2.3515 65.923 16.799 99.21l35.017 25.245c28.06-103.73 98.416 4.0179 148.21 8.9578-5.6085-51.575-20.745-103.15-41.531-154.72-118.96 53.133-149.45-22.013-184.04-91.206z" fill="#520"/>
 <path d="m550.5 594.26c35.554-100.4 116.34-132.12 210.1-144.14 33.95 48.987 86.925 88.461 89.578 153.1-22.53 17.945-45.06 26.122-67.59 33.388l-35.017 0.81434c-68.837-4.9455-132.31-25.979-197.07-43.16z" fill="#520"/>
 <path d="m223.13 65.748c-15.473 64.469-71.263 128.94-46.417 193.41 17.102 24.293 33.244 50.506 56.597 62.297-5.0738-13.565-8.6617-27.315-9.2993-41.954-0.6264-14.381-7.1403-28.04-12.99-42.059-9.1271-24.436-26.729-46.224-20.057-75.598z" fill="#520"/>
 <path d="m171.83 297.64-1.6287 52.118c29.54 49.049 63.083 63.403 95.685 85.913l2.443-49.268z"/>
 <path d="m550.37 594.2c35.554-100.4 116.34-132.12 210.1-144.14 33.95 48.987 86.925 88.461 89.578 153.1-22.53 17.945-45.06 26.122-67.59 33.388l-35.017 0.81434c-68.837-4.9455-132.31-25.979-197.07-43.16z" fill="url(#i)"/>
 <path d="m310.91 376.39c6.6971-64.741 109.66 34.745 164.5 52.118 5.69 14.882 129.59-41.164 202.77-66.776 15.571 27.791 37.092 52.013 63.519 73.291-102.91 2.3486-175.86 51.948-222.32 143.32-52.962-13.013-94.187-35.213-116.37-71.628-27.273-44.762-56.646-90.134-92.097-130.33z" fill="url(#j)"/>
 <path d="m213.27 122.46-4.886 38.274c10.214 24.877 24.281 47.545 30.432 74.245 6.8045 29.533 2.3515 65.923 16.799 99.21l35.017 25.245c28.06-103.73 98.416 4.0179 148.21 8.9578-5.6085-51.575-20.745-103.15-41.532-154.72-118.96 53.133-149.45-22.013-184.04-91.206z" fill="url(#k)"/>
 <path d="m225.1 68.056c-15.473 64.469-71.263 128.94-46.418 193.41 17.102 24.293 33.244 50.506 56.597 62.297-5.0738-13.565-8.6617-27.315-9.2993-41.954-0.6264-14.381-7.1403-28.04-12.99-42.059-9.1271-24.436-26.729-46.224-20.057-75.598z" fill="url(#l)"/>
 <path d="m414.31 178.88c30.838 71.185 52.725 141.47 52.976 209.6 42.303 5.5219 82.649-2.6594 120.35-29.367-25.493-62.547-58.683-123.81-93.284-184.84-30.496-21.361-53.627 1.4696-80.04 4.6066z" fill="url(#m)"/>
 <path d="m529 135.73 124.95 190.6-53.552 21.881c-23.798-61.613-56.051-123.23-96.739-184.84-13.624-30.057 14.277-20.895 25.336-27.64z" fill="url(#n)"/>
 <path d="m552.67 595.35c35.554-100.4 116.34-132.12 210.1-144.14 33.95 48.987 86.925 88.461 89.578 153.1-22.53 17.945-45.06 26.122-67.59 33.388l-35.017 0.81434c-68.837-4.9455-132.31-25.979-197.07-43.16z" fill="url(#o)"/>
 <path d="m312.06 374.08c6.6971-64.741 109.66 34.745 164.5 52.118 5.69 14.882 129.59-41.164 202.77-66.776 15.571 27.791 37.092 52.013 63.519 73.291-102.91 2.3486-175.86 51.948-222.32 143.32-52.962-13.013-94.187-35.213-116.37-71.628-27.273-44.762-56.646-90.134-92.097-130.33z" fill="url(#p)"/>
 <g transform="translate(-198.08 -28.791)">
  <path transform="matrix(.79688 0 0 1 134.65 0)" d="m688.93 235.74c0 5.9592-5.8335 10.79-13.029 10.79s-13.029-4.8309-13.029-10.79 5.8335-10.79 13.029-10.79 13.029 4.8309 13.029 10.79z" opacity=".8006"/>
  <path transform="matrix(.51563 0 0 .67925 324.54 75.208)" d="m688.93 235.74c0 5.9592-5.8335 10.79-13.029 10.79s-13.029-4.8309-13.029-10.79 5.8335-10.79 13.029-10.79 13.029 4.8309 13.029 10.79z"/>
  <path transform="matrix(.79688 0 0 1 197.55 -25.041)" d="m688.93 235.74c0 5.9592-5.8335 10.79-13.029 10.79s-13.029-4.8309-13.029-10.79 5.8335-10.79 13.029-10.79 13.029 4.8309 13.029 10.79z" opacity=".8006"/>
  <path transform="matrix(.51563 0 0 .67925 387.45 50.167)" d="m688.93 235.74c0 5.9592-5.8335 10.79-13.029 10.79s-13.029-4.8309-13.029-10.79 5.8335-10.79 13.029-10.79 13.029 4.8309 13.029 10.79z"/>
  <path d="m674.89 240.15c20.766-8.2792 42.866-31.233 62.297-24.837l3.2574-4.4789-3.6645-4.0717c-12.413-11.005-43.16 14.658-64.74 21.987l-1.2215 5.7004z" fill="#2b1100"/>
  <path d="m674.89 240.55c20.766-8.2792 42.866-31.233 62.297-24.837l3.2574-4.4789-3.6645-4.0717c-12.413-11.005-43.16 14.658-64.74 21.987l-1.2215 5.7004z" fill="url(#f)"/>
  <path d="m675.29 240.15c20.766-8.2792 42.866-31.233 62.297-24.837l3.2574-4.4789-3.6645-4.0717c-12.413-11.005-43.16 14.658-64.74 21.987l-1.2215 5.7004z" fill="url(#e)"/>
 </g>
 <g transform="translate(-131.19 101.67)">
  <path transform="matrix(.79688 0 0 1 134.65 0)" d="m688.93 235.74c0 5.9592-5.8335 10.79-13.029 10.79s-13.029-4.8309-13.029-10.79 5.8335-10.79 13.029-10.79 13.029 4.8309 13.029 10.79z" opacity=".8006"/>
  <path transform="matrix(.51563 0 0 .67925 324.54 75.208)" d="m688.93 235.74c0 5.9592-5.8335 10.79-13.029 10.79s-13.029-4.8309-13.029-10.79 5.8335-10.79 13.029-10.79 13.029 4.8309 13.029 10.79z"/>
  <path transform="matrix(.79688 0 0 1 197.55 -25.041)" d="m688.93 235.74c0 5.9592-5.8335 10.79-13.029 10.79s-13.029-4.8309-13.029-10.79 5.8335-10.79 13.029-10.79 13.029 4.8309 13.029 10.79z" opacity=".8006"/>
  <path transform="matrix(.51563 0 0 .67925 387.45 50.167)" d="m688.93 235.74c0 5.9592-5.8335 10.79-13.029 10.79s-13.029-4.8309-13.029-10.79 5.8335-10.79 13.029-10.79 13.029 4.8309 13.029 10.79z"/>
  <path d="m674.89 240.15c20.766-8.2792 42.866-31.233 62.297-24.837l3.2574-4.4789-3.6645-4.0717c-12.413-11.005-43.16 14.658-64.74 21.987l-1.2215 5.7004z" fill="#2b1100"/>
  <path d="m674.89 240.55c20.766-8.2792 42.866-31.233 62.297-24.837l3.2574-4.4789-3.6645-4.0717c-12.413-11.005-43.16 14.658-64.74 21.987l-1.2215 5.7004z" fill="url(#f)"/>
  <path d="m675.29 240.15c20.766-8.2792 42.866-31.233 62.297-24.837l3.2574-4.4789-3.6645-4.0717c-12.413-11.005-43.16 14.658-64.74 21.987l-1.2215 5.7004z" fill="url(#e)"/>
 </g>
 <g transform="translate(-151.92 55.605)">
  <path transform="matrix(.79688 0 0 1 134.65 0)" d="m688.93 235.74c0 5.9592-5.8335 10.79-13.029 10.79s-13.029-4.8309-13.029-10.79 5.8335-10.79 13.029-10.79 13.029 4.8309 13.029 10.79z" opacity=".8006"/>
  <path transform="matrix(.51563 0 0 .67925 324.54 75.208)" d="m688.93 235.74c0 5.9592-5.8335 10.79-13.029 10.79s-13.029-4.8309-13.029-10.79 5.8335-10.79 13.029-10.79 13.029 4.8309 13.029 10.79z"/>
  <path transform="matrix(.79688 0 0 1 197.55 -25.041)" d="m688.93 235.74c0 5.9592-5.8335 10.79-13.029 10.79s-13.029-4.8309-13.029-10.79 5.8335-10.79 13.029-10.79 13.029 4.8309 13.029 10.79z" opacity=".8006"/>
  <path transform="matrix(.51563 0 0 .67925 387.45 50.167)" d="m688.93 235.74c0 5.9592-5.8335 10.79-13.029 10.79s-13.029-4.8309-13.029-10.79 5.8335-10.79 13.029-10.79 13.029 4.8309 13.029 10.79z"/>
  <path d="m674.89 240.15c20.766-8.2792 42.866-31.233 62.297-24.837l3.2574-4.4789-3.6645-4.0717c-12.413-11.005-43.16 14.658-64.74 21.987l-1.2215 5.7004z" fill="#2b1100"/>
  <path d="m674.89 240.55c20.766-8.2792 42.866-31.233 62.297-24.837l3.2574-4.4789-3.6645-4.0717c-12.413-11.005-43.16 14.658-64.74 21.987l-1.2215 5.7004z" fill="url(#f)"/>
  <path d="m675.29 240.15c20.766-8.2792 42.866-31.233 62.297-24.837l3.2574-4.4789-3.6645-4.0717c-12.413-11.005-43.16 14.658-64.74 21.987l-1.2215 5.7004z" fill="url(#e)"/>
 </g>
 <g transform="translate(-173.8 11.843)">
  <path transform="matrix(.79688 0 0 1 134.65 0)" d="m688.93 235.74c0 5.9592-5.8335 10.79-13.029 10.79s-13.029-4.8309-13.029-10.79 5.8335-10.79 13.029-10.79 13.029 4.8309 13.029 10.79z" opacity=".8006"/>
  <path transform="matrix(.51563 0 0 .67925 324.54 75.208)" d="m688.93 235.74c0 5.9592-5.8335 10.79-13.029 10.79s-13.029-4.8309-13.029-10.79 5.8335-10.79 13.029-10.79 13.029 4.8309 13.029 10.79z"/>
  <path transform="matrix(.79688 0 0 1 197.55 -25.041)" d="m688.93 235.74c0 5.9592-5.8335 10.79-13.029 10.79s-13.029-4.8309-13.029-10.79 5.8335-10.79 13.029-10.79 13.029 4.8309 13.029 10.79z" opacity=".8006"/>
  <path transform="matrix(.51563 0 0 .67925 387.45 50.167)" d="m688.93 235.74c0 5.9592-5.8335 10.79-13.029 10.79s-13.029-4.8309-13.029-10.79 5.8335-10.79 13.029-10.79 13.029 4.8309 13.029 10.79z"/>
  <path d="m674.89 240.15c20.766-8.2792 42.866-31.233 62.297-24.837l3.2574-4.4789-3.6645-4.0717c-12.413-11.005-43.16 14.658-64.74 21.987l-1.2215 5.7004z" fill="#2b1100"/>
  <path d="m674.89 240.55c20.766-8.2792 42.866-31.233 62.297-24.837l3.2574-4.4789-3.6645-4.0717c-12.413-11.005-43.16 14.658-64.74 21.987l-1.2215 5.7004z" fill="url(#f)"/>
  <path d="m675.29 240.15c20.766-8.2792 42.866-31.233 62.297-24.837l3.2574-4.4789-3.6645-4.0717c-12.413-11.005-43.16 14.658-64.74 21.987l-1.2215 5.7004z" fill="url(#e)"/>
 </g>
 <path d="m231.53 73.045c-16.869 3.2428 40.073 107.63 63.42 110.82 0.67722 0.0926 1.3884-0.24977 1.9443 0.0174 42.211 20.29 226.69-40.256 226.69-40.256-63.794 8.5052-123.06-20.44-226.37-81.938-3.6688-2.1839-8.3091-2.5451-12.558-3.8033-16.216-4.683-43.01-16.64-53.126 15.162z" fill="url(#q)"/>
 <path d="m262.52 438.56 44.876-19.503-6.6015-41.165-35.424 13.029z" fill="url(#a)"/>
 <path d="m167.88 296.2c28.174 63.37 105.14 87.209 146.78 134.27 0.83899 0.94823 1.6704 1.8993 2.4974 2.8503 16 18.399 29.927 37.136 40.725 56.187 14.715 25.962 27.904 50.31 44.513 70.601 1.032 1.2608 0.9387 3.3608 2.239 4.3665 47.189 36.5 119.64 59.38 196.27 79.47 43.737 11.467 89.09 22.981 132.43 26.542 73.724-1.6374 131.25-10.216 119.77-48.369l-467.57-401.93c-72.554 25.336-208.76-76.637-217.66 76.009z" fill="url(#a)"/>
 <path d="m168.48 297.42c28.174 63.37 105.14 87.209 146.78 134.27 0.83899 0.94823 1.6704 1.8993 2.4974 2.8503 16 18.399 29.927 37.136 40.725 56.187 14.715 25.962 27.904 50.31 44.513 70.601 1.032 1.2608 0.9387 3.3608 2.239 4.3665 47.189 36.5 119.64 59.38 196.27 79.47 43.737 11.467 89.09 22.981 132.43 26.542 73.724-1.6374 131.25-10.216 119.77-48.369l-467.57-401.93c-72.554 25.336-208.76-76.637-217.66 76.009z" fill="url(#a)"/>
 <path d="m169.79 275.62c28.174 63.37 105.14 87.209 146.78 134.27 0.83899 0.94823 1.6704 1.8993 2.4974 2.8503 16 18.399 29.927 37.136 40.725 56.187 14.715 25.962 27.904 50.31 44.513 70.601 1.0321 1.2608 0.93873 3.3608 2.239 4.3665 47.189 36.5 119.64 59.38 196.27 79.47 43.737 11.467 89.09 22.981 132.43 26.542 73.724-1.6374 131.25-10.216 119.77-48.369-21.343-61.925-72.59-106.22-117.57-162.27-149.49-186.29-153.05-213.23-209.5-293.79l-45.871-0.8194-260.94-72.154c-38.672 73.091-49.291 139.17-51.357 203.11z" fill="url(#a)"/>
 <path d="m226.51 66.022c-17.461 3.5716 41.481 118.54 65.647 122.06 0.70104 0.10199 1.4372-0.27509 2.0126 0.0192 43.694 22.348 234.65-44.339 234.65-44.339-66.035 9.3677-127.38-22.513-234.32-90.247-3.7976-2.4054-8.6009-2.8032-12.999-4.1889-16.785-5.1578-44.52-18.327-54.991 16.699z" fill="url(#a)"/>
 <path d="m415.09 180.61c30.838 71.185 52.725 141.47 52.976 209.6 42.303 5.5219 82.649-2.6594 120.35-29.367-25.493-62.547-58.683-123.81-93.284-184.84-30.496-21.361-53.627 1.4696-80.04 4.6066z" fill="url(#a)"/>
 <path d="m530.26 143.18 124.95 190.6-53.552 21.881c-23.797-61.613-56.051-123.23-96.739-184.84-13.624-30.057 14.277-20.895 25.336-27.64z" fill="url(#a)"/>
 <path d="m163.88 295.11c28.174 63.37 105.14 87.209 146.78 134.27 0.83899 0.94823 1.6704 1.8993 2.4974 2.8503 16 18.399 29.927 37.136 40.725 56.187 14.715 25.962 27.904 50.31 44.513 70.601 1.032 1.2608 0.9387 3.3608 2.239 4.3665 47.189 36.5 119.64 59.38 196.27 79.47 43.737 11.467 89.09 22.981 132.43 26.542 73.724-1.6374 131.25-10.216 119.77-48.369l-467.57-401.93c-72.554 25.336-208.76-76.637-217.66 76.009z" fill="url(#a)"/>
 <path d="m308.46 376.94c6.6971-64.741 109.66 34.745 164.5 52.118 5.69 14.882 129.59-41.164 202.77-66.776 15.571 27.791 37.092 52.013 63.519 73.291-102.91 2.3486-175.86 51.948-222.32 143.32-52.962-13.013-94.187-35.213-116.37-71.628-27.273-44.762-56.646-90.134-92.097-130.33z" fill="url(#a)"/>
 <path d="m211.55 124.49-4.8861 38.274c10.214 24.877 24.281 47.545 30.432 74.245 6.8045 29.533 2.3515 65.923 16.799 99.21l35.017 25.245c28.06-103.73 98.416 4.0179 148.21 8.9578-5.6085-51.575-20.745-103.15-41.531-154.72-118.96 53.133-149.45-22.013-184.04-91.206z" fill="url(#a)"/>
 <path d="m548.69 596.81c35.554-100.4 116.34-132.12 210.1-144.14 33.95 48.987 86.925 88.461 89.578 153.1-22.53 17.945-45.06 26.122-67.59 33.388l-35.017 0.81434c-68.837-4.9455-132.31-25.979-197.07-43.16z" fill="url(#a)"/>
 <path d="m221.32 68.302c-15.473 64.469-71.263 128.94-46.417 193.41 17.102 24.293 33.244 50.506 56.597 62.297-5.0738-13.565-8.6617-27.315-9.2993-41.954-0.6264-14.381-7.1403-28.04-12.99-42.059-9.1271-24.436-26.729-46.224-20.057-75.598z" fill="url(#a)"/>
 <path d="m170.02 300.19-1.6287 52.118c29.54 49.049 63.083 63.403 95.685 85.913l2.443-49.268z" fill="url(#a)"/>
 <path d="m548.56 596.75c35.554-100.4 116.34-132.12 210.1-144.14 33.95 48.987 86.925 88.461 89.578 153.1-22.53 17.945-45.06 26.122-67.59 33.388l-35.017 0.81434c-68.837-4.9455-132.31-25.979-197.07-43.16z" fill="url(#a)"/>
 <path d="m309.11 378.94c6.6971-64.741 109.66 34.745 164.5 52.118 5.69 14.882 129.59-41.164 202.77-66.776 15.571 27.791 37.092 52.013 63.519 73.291-102.91 2.3486-175.86 51.948-222.32 143.32-52.962-13.013-94.187-35.213-116.37-71.628-27.273-44.762-56.646-90.134-92.097-130.33z" fill="url(#a)"/>
 <path d="m211.47 125.02-4.886 38.274c10.214 24.877 24.281 47.545 30.432 74.245 6.8045 29.533 2.3515 65.923 16.799 99.21l35.017 25.245c28.06-103.73 98.416 4.0179 148.21 8.9578-5.6085-51.575-20.745-103.15-41.532-154.72-118.96 53.133-149.45-22.013-184.04-91.206z" fill="url(#a)"/>
 <path d="m223.3 70.61c-15.473 64.469-71.263 128.94-46.418 193.41 17.102 24.293 33.244 50.506 56.597 62.297-5.0738-13.565-8.6617-27.315-9.2993-41.954-0.6264-14.381-7.1403-28.04-12.99-42.059-9.1271-24.436-26.729-46.224-20.057-75.598z" fill="url(#a)"/>
 <path d="m412.5 181.43c30.838 71.185 52.725 141.47 52.976 209.6 42.303 5.5219 82.649-2.6594 120.35-29.367-25.493-62.547-58.683-123.81-93.284-184.84-30.496-21.361-53.627 1.4696-80.04 4.6066z" fill="url(#a)"/>
 <path d="m527.2 138.29 124.95 190.6-53.552 21.881c-23.798-61.613-56.051-123.23-96.739-184.84-13.624-30.057 14.277-20.895 25.336-27.64z" fill="url(#a)"/>
 <path d="m550.86 597.9c35.554-100.4 116.34-132.12 210.1-144.14 33.95 48.987 86.925 88.461 89.578 153.1-22.53 17.945-45.06 26.122-67.59 33.388l-35.017 0.81434c-68.837-4.9455-132.31-25.979-197.07-43.16z" fill="url(#a)"/>
 <path d="m310.26 376.64c6.6971-64.741 109.66 34.745 164.5 52.118 5.69 14.882 129.59-41.164 202.77-66.776 15.571 27.791 37.092 52.013 63.519 73.291-102.91 2.3486-175.86 51.948-222.32 143.32-52.962-13.013-94.187-35.213-116.37-71.628-27.273-44.762-56.646-90.134-92.097-130.33z" fill="url(#a)"/>
 <g transform="translate(-199.89 -26.237)" fill="url(#d)">
  <path transform="matrix(.79688 0 0 1 134.65 0)" d="m688.93 235.74c0 5.9592-5.8335 10.79-13.029 10.79s-13.029-4.8309-13.029-10.79 5.8335-10.79 13.029-10.79 13.029 4.8309 13.029 10.79z" opacity=".8006"/>
  <path transform="matrix(.51563 0 0 .67925 324.54 75.208)" d="m688.93 235.74c0 5.9592-5.8335 10.79-13.029 10.79s-13.029-4.8309-13.029-10.79 5.8335-10.79 13.029-10.79 13.029 4.8309 13.029 10.79z"/>
  <path transform="matrix(.79688 0 0 1 197.55 -25.041)" d="m688.93 235.74c0 5.9592-5.8335 10.79-13.029 10.79s-13.029-4.8309-13.029-10.79 5.8335-10.79 13.029-10.79 13.029 4.8309 13.029 10.79z" opacity=".8006"/>
  <path transform="matrix(.51563 0 0 .67925 387.45 50.167)" d="m688.93 235.74c0 5.9592-5.8335 10.79-13.029 10.79s-13.029-4.8309-13.029-10.79 5.8335-10.79 13.029-10.79 13.029 4.8309 13.029 10.79z"/>
  <path d="m674.89 240.15c20.766-8.2792 42.866-31.233 62.297-24.837l3.2574-4.4789-3.6645-4.0717c-12.413-11.005-43.16 14.658-64.74 21.987l-1.2215 5.7004z"/>
  <path d="m674.89 240.55c20.766-8.2792 42.866-31.233 62.297-24.837l3.2574-4.4789-3.6645-4.0717c-12.413-11.005-43.16 14.658-64.74 21.987l-1.2215 5.7004z"/>
  <path d="m675.29 240.15c20.766-8.2792 42.866-31.233 62.297-24.837l3.2574-4.4789-3.6645-4.0717c-12.413-11.005-43.16 14.658-64.74 21.987l-1.2215 5.7004z"/>
 </g>
 <g transform="translate(-132.99 104.23)" fill="url(#d)">
  <path transform="matrix(.79688 0 0 1 134.65 0)" d="m688.93 235.74c0 5.9592-5.8335 10.79-13.029 10.79s-13.029-4.8309-13.029-10.79 5.8335-10.79 13.029-10.79 13.029 4.8309 13.029 10.79z" opacity=".8006"/>
  <path transform="matrix(.51563 0 0 .67925 324.54 75.208)" d="m688.93 235.74c0 5.9592-5.8335 10.79-13.029 10.79s-13.029-4.8309-13.029-10.79 5.8335-10.79 13.029-10.79 13.029 4.8309 13.029 10.79z"/>
  <path transform="matrix(.79688 0 0 1 197.55 -25.041)" d="m688.93 235.74c0 5.9592-5.8335 10.79-13.029 10.79s-13.029-4.8309-13.029-10.79 5.8335-10.79 13.029-10.79 13.029 4.8309 13.029 10.79z" opacity=".8006"/>
  <path transform="matrix(.51563 0 0 .67925 387.45 50.167)" d="m688.93 235.74c0 5.9592-5.8335 10.79-13.029 10.79s-13.029-4.8309-13.029-10.79 5.8335-10.79 13.029-10.79 13.029 4.8309 13.029 10.79z"/>
  <path d="m674.89 240.15c20.766-8.2792 42.866-31.233 62.297-24.837l3.2574-4.4789-3.6645-4.0717c-12.413-11.005-43.16 14.658-64.74 21.987l-1.2215 5.7004z"/>
  <path d="m674.89 240.55c20.766-8.2792 42.866-31.233 62.297-24.837l3.2574-4.4789-3.6645-4.0717c-12.413-11.005-43.16 14.658-64.74 21.987l-1.2215 5.7004z"/>
  <path d="m675.29 240.15c20.766-8.2792 42.866-31.233 62.297-24.837l3.2574-4.4789-3.6645-4.0717c-12.413-11.005-43.16 14.658-64.74 21.987l-1.2215 5.7004z"/>
 </g>
 <g transform="translate(-153.72 58.16)" fill="url(#d)">
  <path transform="matrix(.79688 0 0 1 134.65 0)" d="m688.93 235.74c0 5.9592-5.8335 10.79-13.029 10.79s-13.029-4.8309-13.029-10.79 5.8335-10.79 13.029-10.79 13.029 4.8309 13.029 10.79z" opacity=".8006"/>
  <path transform="matrix(.51563 0 0 .67925 324.54 75.208)" d="m688.93 235.74c0 5.9592-5.8335 10.79-13.029 10.79s-13.029-4.8309-13.029-10.79 5.8335-10.79 13.029-10.79 13.029 4.8309 13.029 10.79z"/>
  <path transform="matrix(.79688 0 0 1 197.55 -25.041)" d="m688.93 235.74c0 5.9592-5.8335 10.79-13.029 10.79s-13.029-4.8309-13.029-10.79 5.8335-10.79 13.029-10.79 13.029 4.8309 13.029 10.79z" opacity=".8006"/>
  <path transform="matrix(.51563 0 0 .67925 387.45 50.167)" d="m688.93 235.74c0 5.9592-5.8335 10.79-13.029 10.79s-13.029-4.8309-13.029-10.79 5.8335-10.79 13.029-10.79 13.029 4.8309 13.029 10.79z"/>
  <path d="m674.89 240.15c20.766-8.2792 42.866-31.233 62.297-24.837l3.2574-4.4789-3.6645-4.0717c-12.413-11.005-43.16 14.658-64.74 21.987l-1.2215 5.7004z"/>
  <path d="m674.89 240.55c20.766-8.2792 42.866-31.233 62.297-24.837l3.2574-4.4789-3.6645-4.0717c-12.413-11.005-43.16 14.658-64.74 21.987l-1.2215 5.7004z"/>
  <path d="m675.29 240.15c20.766-8.2792 42.866-31.233 62.297-24.837l3.2574-4.4789-3.6645-4.0717c-12.413-11.005-43.16 14.658-64.74 21.987l-1.2215 5.7004z"/>
 </g>
 <g transform="translate(-175.6 14.397)" fill="url(#d)">
  <path transform="matrix(.79688 0 0 1 134.65 0)" d="m688.93 235.74c0 5.9592-5.8335 10.79-13.029 10.79s-13.029-4.8309-13.029-10.79 5.8335-10.79 13.029-10.79 13.029 4.8309 13.029 10.79z" opacity=".8006"/>
  <path transform="matrix(.51563 0 0 .67925 324.54 75.208)" d="m688.93 235.74c0 5.9592-5.8335 10.79-13.029 10.79s-13.029-4.8309-13.029-10.79 5.8335-10.79 13.029-10.79 13.029 4.8309 13.029 10.79z"/>
  <path transform="matrix(.79688 0 0 1 197.55 -25.041)" d="m688.93 235.74c0 5.9592-5.8335 10.79-13.029 10.79s-13.029-4.8309-13.029-10.79 5.8335-10.79 13.029-10.79 13.029 4.8309 13.029 10.79z" opacity=".8006"/>
  <path transform="matrix(.51563 0 0 .67925 387.45 50.167)" d="m688.93 235.74c0 5.9592-5.8335 10.79-13.029 10.79s-13.029-4.8309-13.029-10.79 5.8335-10.79 13.029-10.79 13.029 4.8309 13.029 10.79z"/>
  <path d="m674.89 240.15c20.766-8.2792 42.866-31.233 62.297-24.837l3.2574-4.4789-3.6645-4.0717c-12.413-11.005-43.16 14.658-64.74 21.987l-1.2215 5.7004z"/>
  <path d="m674.89 240.55c20.766-8.2792 42.866-31.233 62.297-24.837l3.2574-4.4789-3.6645-4.0717c-12.413-11.005-43.16 14.658-64.74 21.987l-1.2215 5.7004z"/>
  <path d="m675.29 240.15c20.766-8.2792 42.866-31.233 62.297-24.837l3.2574-4.4789-3.6645-4.0717c-12.413-11.005-43.16 14.658-64.74 21.987l-1.2215 5.7004z"/>
 </g>
 <path d="m229.72 75.6c-16.869 3.2428 40.073 107.63 63.42 110.82 0.67722 0.0926 1.3884-0.24977 1.9443 0.0174 42.211 20.29 226.69-40.256 226.69-40.256-63.794 8.5052-123.06-20.44-226.37-81.938-3.6688-2.1839-8.3091-2.5451-12.558-3.8033-16.216-4.683-43.01-16.64-53.126 15.162z" fill="url(#a)"/>
</svg>
