<?xml version="1.0" encoding="UTF-8"?>
<svg version="1.1" viewBox="0 0 744.09 1052.4" xmlns="http://www.w3.org/2000/svg">
 <path d="m320 192.38l-57.562 19.188 57.562 95.906v-115.09zm-61.812 21.812l-36.375 36.375 90.875 54.5-54.5-90.875zm-39 40.594l-17.562 52.75h105.5l-87.938-52.75zm318.03 13.406l-60 40 0.125 0.1875h7.9062c-0.72696 2.6695-1.4576 5.3367-2.2188 8l59.75-39.844-5.5625-8.3438zm-337.22 44.188s26.007 100 60 100h160c33.993 0 60-100 60-100h-280zm125.22 104l-34.25 34.5c4.0262 0.54693 7.9278 1.8516 11.5 3.7812l33.969-34.188 34.938 35.188c3.2976-2.1402 6.9776-3.6587 10.875-4.4375l-34.562-34.781c-7.4878-0.01284-14.98-0.04182-22.469-0.0625zm-38.75 38.219c-16.512 0-29.906 13.363-29.906 29.875s13.394 29.906 29.906 29.906 29.875-13.394 29.875-29.906-13.363-29.875-29.875-29.875zm102.84 0c-16.512 0-29.906 13.363-29.906 29.875s13.394 29.906 29.906 29.906 29.875-13.394 29.875-29.906-13.363-29.875-29.875-29.875zm-103.5 3.5938c0.0523-2e-3 0.10405 2e-3 0.15625 0 5.0219-0.18967 9.9294 1.256 14.188 3.9062 0.0278 0.0173 0.06605 0.01385 0.09375 0.03125l-0.03125 0.03125c14.179 7.9006 16.565 28.47 5.7812 40.031-0.0202 0.0217-0.0422 0.0409-0.0625 0.0625-0.01 0.0116-0.02135 0.01975-0.03125 0.03125-11.015 13.088-33.078 10.471-41.844-3.8125-0.0199-0.0324-0.0427-0.06115-0.0625-0.09375-11.156-16.092 2.2718-40.649 21.812-40.188zm102.84 0c0.05226-2e-3 0.10405 2e-3 0.15625 0 5.0219-0.18967 9.9294 1.256 14.188 3.9062 0.0278 0.0173 0.06595 0.01385 0.09375 0.03125l-0.03125 0.03125c14.179 7.9006 16.565 28.47 5.7812 40.031-0.0202 0.0217-0.0422 0.0409-0.0625 0.0625-0.0097 0.0116-0.02125 0.01965-0.03125 0.03125-11.015 13.088-33.078 10.471-41.844-3.8125-0.0199-0.0324-0.0427-0.06115-0.0625-0.09375-11.156-16.092 2.2718-40.649 21.812-40.188zm-102.81 3.8125c-16.375-0.49885-28.063 20.856-18.656 34.281l0.03125 0.0625 0.03125 0.03125c7.3549 12.113 26.599 14.451 35.812 3.375l0.03125-0.03125 0.0625-0.0625c9.1377-9.6873 7.1248-27.658-4.8125-34.25l-0.0625-0.03125h-0.03125c-3.7233-2.336-7.9738-3.5653-12.25-3.375h-0.15625zm102.84 0c-16.375-0.49885-28.063 20.856-18.656 34.281l0.03125 0.0625 0.03125 0.03125c7.3549 12.113 26.599 14.451 35.812 3.375l0.03125-0.03125 0.0625-0.0625c9.1377-9.6873 7.1248-27.658-4.8125-34.25l-0.0625-0.03125h-0.03125c-3.7233-2.336-7.9738-3.5653-12.25-3.375h-0.15625z"/>
</svg>
